<svg xmlns="http://www.w3.org/2000/svg" preserveAspectRatio="none" viewBox="0 0 100 1" fill="currentColor"><rect height="0.35582644850783873" width="1" x="0" y="0.6441735514921613" /><rect height="0.39181809949371466" width="1" x="1" y="0.6081819005062854" /><rect height="0.421472988761498" width="1" x="2" y="0.5785270112385019" /><rect height="0.404951629830003" width="1" x="3" y="0.595048370169997" /><rect height="0.46774090500246396" width="1" x="4" y="0.5322590949975361" /><rect height="0.38748025664829416" width="1" x="5" y="0.6125197433517058" /><rect height="0.4342920699366046" width="1" x="6" y="0.5657079300633954" /><rect height="0.41081282885909953" width="1" x="7" y="0.5891871711409005" /><rect height="0.370836118097327" width="1" x="8" y="0.629163881902673" /><rect height="0.4293247732049314" width="1" x="9" y="0.5706752267950685" /><rect height="0.4343204036949443" width="1" x="10" y="0.5656795963050557" /><rect height="0.39464091961379416" width="1" x="11" y="0.6053590803862059" /><rect height="0.26666955559888955" width="1" x="12" y="0.7333304444011104" /><rect height="0.788344047382933" width="1" x="13" y="0.21165595261706704" /><rect height="0.618806504319787" width="1" x="14" y="0.381193495680213" /><rect height="0.6722684173595938" width="1" x="15" y="0.32773158264040625" /><rect height="0.7540607553557748" width="1" x="16" y="0.24593924464422523" /><rect height="0.6319472569866326" width="1" x="17" y="0.36805274301336743" /><rect height="0.674834566962949" width="1" x="18" y="0.32516543303705103" /><rect height="0.6604871295291652" width="1" x="19" y="0.3395128704708348" /><rect height="0.6559026163170225" width="1" x="20" y="0.3440973836829775" /><rect height="0.7344671281180329" width="1" x="21" y="0.26553287188196706" /><rect height="0.6890147796661394" width="1" x="22" y="0.31098522033386056" /><rect height="0.6990665971100678" width="1" x="23" y="0.3009334028899322" /><rect height="0.7185824454033477" width="1" x="24" y="0.2814175545966523" /><rect height="0.6130803073157208" width="1" x="25" y="0.38691969268427917" /><rect height="0.6906920270470723" width="1" x="26" y="0.30930797295292767" /><rect height="0.7337065611539728" width="1" x="27" y="0.2662934388460272" /><rect height="0.6852241672513977" width="1" x="28" y="0.3147758327486023" /><rect height="0.7559641172395363" width="1" x="29" y="0.24403588276046373" /><rect height="0.6622949344240164" width="1" x="30" y="0.33770506557598357" /><rect height="0.7775266628999435" width="1" x="31" y="0.22247333710005646" /><rect height="0.9025018708613962" width="1" x="32" y="0.09749812913860378" /><rect height="0.7067378232895716" width="1" x="33" y="0.2932621767104284" /><rect height="0.8229940115768404" width="1" x="34" y="0.17700598842315962" /><rect height="0.9208271457405194" width="1" x="35" y="0.07917285425948062" /><rect height="0.6122336279488637" width="1" x="36" y="0.3877663720511363" /><rect height="0.5937811289391562" width="1" x="37" y="0.40621887106084376" /><rect height="0.7630020005855643" width="1" x="38" y="0.23699799941443567" /><rect height="0.7118245662573828" width="1" x="39" y="0.2881754337426172" /><rect height="0.7436361545423181" width="1" x="40" y="0.25636384545768187" /><rect height="0.7606619654850378" width="1" x="41" y="0.23933803451496216" /><rect height="0.8360997637186779" width="1" x="42" y="0.1639002362813221" /><rect height="0.7724954763210337" width="1" x="43" y="0.22750452367896634" /><rect height="0.7233497391349759" width="1" x="44" y="0.2766502608650241" /><rect height="0.6940154102311534" width="1" x="45" y="0.30598458976884657" /><rect height="0.7961480533319111" width="1" x="46" y="0.20385194666808892" /><rect height="0.7776649983083079" width="1" x="47" y="0.22233500169169207" /><rect height="0.676400701566079" width="1" x="48" y="0.323599298433921" /><rect height="0.8649846414362882" width="1" x="49" y="0.13501535856371183" /><rect height="0.945726408118344" width="1" x="50" y="0.054273591881656036" /><rect height="0.7210302598983429" width="1" x="51" y="0.2789697401016571" /><rect height="0.6202020808089899" width="1" x="52" y="0.37979791919101014" /><rect height="0.7734038232795714" width="1" x="53" y="0.22659617672042864" /><rect height="0.7482940021878106" width="1" x="54" y="0.2517059978121894" /><rect height="0.7256558848382726" width="1" x="55" y="0.2743441151617274" /><rect height="0.7637136779273912" width="1" x="56" y="0.2362863220726088" /><rect height="0.833339166754168" width="1" x="57" y="0.16666083324583203" /><rect height="0.6802579816475025" width="1" x="58" y="0.3197420183524975" /><rect height="0.7470162052430787" width="1" x="59" y="0.25298379475692134" /><rect height="0.9574232502376424" width="1" x="60" y="0.04257674976235759" /><rect height="0.8786326239338035" width="1" x="61" y="0.12136737606619652" /><rect height="0.9373535047470157" width="1" x="62" y="0.06264649525298427" /><rect height="0.9263900069612154" width="1" x="63" y="0.07360999303878457" /><rect height="0.8240756944687503" width="1" x="64" y="0.17592430553124971" /><rect height="0.8179272689090336" width="1" x="65" y="0.18207273109096644" /><rect height="0.8078343397373182" width="1" x="66" y="0.19216566026268178" /><rect height="0.8790037406116648" width="1" x="67" y="0.12099625938833525" /><rect height="0.9080730655404275" width="1" x="68" y="0.09192693445957245" /><rect height="0.8559722840287048" width="1" x="69" y="0.14402771597129516" /><rect height="0.762825331268858" width="1" x="70" y="0.237174668731142" /><rect height="0.7789750179586027" width="1" x="71" y="0.2210249820413973" /><rect height="0.925771664352743" width="1" x="72" y="0.07422833564725695" /><rect height="0.7833111941123562" width="1" x="73" y="0.21668880588764383" /><rect height="0.8625673829551889" width="1" x="74" y="0.13743261704481113" /><rect height="0.9894570640781833" width="1" x="75" y="0.010542935921816654" /><rect height="0.8800320893702295" width="1" x="76" y="0.11996791062977052" /><rect height="0.6464480300537842" width="1" x="77" y="0.35355196994621585" /><rect height="0.725074765010364" width="1" x="78" y="0.27492523498963595" /><rect height="0.9529292939394091" width="1" x="79" y="0.04707070606059094" /><rect height="0.7711543450929542" width="1" x="80" y="0.22884565490704578" /><rect height="0.7980475262684495" width="1" x="81" y="0.20195247373155045" /><rect height="0.7866495775214406" width="1" x="82" y="0.2133504224785594" /><rect height="0.8192845114898945" width="1" x="83" y="0.18071548851010555" /><rect height="0.6978749125681329" width="1" x="84" y="0.30212508743186706" /><rect height="0.8868621918217662" width="1" x="85" y="0.11313780817823382" /><rect height="0.9457647420266859" width="1" x="86" y="0.05423525797331408" /><rect height="1" width="1" x="87" y="0" /><rect height="0.8585545449848415" width="1" x="88" y="0.14144545501515848" /><rect height="0.9304839572593588" width="1" x="89" y="0.06951604274064116" /><rect height="0.8727858695658212" width="1" x="90" y="0.12721413043417884" /><rect height="0.7537746399529326" width="1" x="91" y="0.2462253600470674" /><rect height="0.9024007582335957" width="1" x="92" y="0.09759924176640433" /><rect height="0.824223474463228" width="1" x="93" y="0.17577652553677203" /><rect height="0.8025287045972357" width="1" x="94" y="0.1974712954027643" /><rect height="0.975604634069511" width="1" x="95" y="0.024395365930488966" /><rect height="0.7862462381380165" width="1" x="96" y="0.21375376186198347" /><rect height="0.7857773422156888" width="1" x="97" y="0.21422265778431115" /><rect height="0.10348933011772954" width="1" x="98" y="0.8965106698822705" /><rect height="0" width="1" x="99" y="1" /></svg>
