<svg id="05333292-5786-4a1f-9046-6b4863da3286" xmlns="http://www.w3.org/2000/svg" preserveAspectRatio="none" viewBox="0 0 100 1" fill="currentColor"><rect height="0.6203577507941924" width="1" x="0" y="0.3796422492058076" /><rect height="0.7037011225594785" width="1" x="1" y="0.2962988774405215" /><rect height="0.7290645085404456" width="1" x="2" y="0.2709354914595544" /><rect height="0.9159067416006706" width="1" x="3" y="0.08409325839932935" /><rect height="0.7044544779710553" width="1" x="4" y="0.2955455220289447" /><rect height="0.5670410633884406" width="1" x="5" y="0.4329589366115594" /><rect height="0.9673613261577992" width="1" x="6" y="0.03263867384220076" /><rect height="0.7202052507200867" width="1" x="7" y="0.2797947492799133" /><rect height="0.703314196192796" width="1" x="8" y="0.296685803807204" /><rect height="0.9083577356577086" width="1" x="9" y="0.09164226434229139" /><rect height="0.7012105402904817" width="1" x="10" y="0.2987894597095183" /><rect height="0.6389554438679266" width="1" x="11" y="0.3610445561320734" /><rect height="0.7960683614062551" width="1" x="12" y="0.20393163859374486" /><rect height="0.8891044436301577" width="1" x="13" y="0.11089555636984227" /><rect height="0.6767190788440519" width="1" x="14" y="0.3232809211559481" /><rect height="0.7641155594854352" width="1" x="15" y="0.2358844405145648" /><rect height="0.6938069076605115" width="1" x="16" y="0.30619309233948855" /><rect height="0.618295089535455" width="1" x="17" y="0.381704910464545" /><rect height="0.6639032072317074" width="1" x="18" y="0.33609679276829263" /><rect height="0.7952815795929926" width="1" x="19" y="0.20471842040700738" /><rect height="0.6582005369667622" width="1" x="20" y="0.3417994630332378" /><rect height="0.7582662545338499" width="1" x="21" y="0.24173374546615012" /><rect height="0.9324496570009706" width="1" x="22" y="0.0675503429990294" /><rect height="0.6910940082859635" width="1" x="23" y="0.30890599171403654" /><rect height="0.5937471816182541" width="1" x="24" y="0.4062528183817459" /><rect height="0.8931660667783824" width="1" x="25" y="0.1068339332216176" /><rect height="0.7865755786709284" width="1" x="26" y="0.21342442132907158" /><rect height="0.7738807989288414" width="1" x="27" y="0.22611920107115857" /><rect height="0.8793111386230719" width="1" x="28" y="0.12068886137692814" /><rect height="0.7312608754059258" width="1" x="29" y="0.26873912459407423" /><rect height="0.6838880959753981" width="1" x="30" y="0.3161119040246019" /><rect height="0.8344254726840077" width="1" x="31" y="0.16557452731599231" /><rect height="0.795370191091801" width="1" x="32" y="0.20462980890819904" /><rect height="0.6770514508004362" width="1" x="33" y="0.32294854919956384" /><rect height="0.8281567609942904" width="1" x="34" y="0.17184323900570964" /><rect height="0.800030651379659" width="1" x="35" y="0.199969348620341" /><rect height="0.8417335562601028" width="1" x="36" y="0.15826644373989718" /><rect height="0.8624689623246613" width="1" x="37" y="0.1375310376753387" /><rect height="0.9157083905944413" width="1" x="38" y="0.08429160940555869" /><rect height="0.6899647635271287" width="1" x="39" y="0.31003523647287135" /><rect height="0.8624472036292243" width="1" x="40" y="0.13755279637077567" /><rect height="0.9417838219999963" width="1" x="41" y="0.05821617800000367" /><rect height="0.7271260925860872" width="1" x="42" y="0.2728739074139128" /><rect height="0.7438058670272514" width="1" x="43" y="0.2561941329727486" /><rect height="0.9747227027705442" width="1" x="44" y="0.02527729722945582" /><rect height="0.7915356152003094" width="1" x="45" y="0.20846438479969065" /><rect height="0.7123292336587468" width="1" x="46" y="0.2876707663412532" /><rect height="0.9639105231988688" width="1" x="47" y="0.03608947680113117" /><rect height="0.7716043348366804" width="1" x="48" y="0.22839566516331955" /><rect height="0.8138657129000053" width="1" x="49" y="0.1861342870999947" /><rect height="0.7740791499350708" width="1" x="50" y="0.22592085006492924" /><rect height="0.6080420138334849" width="1" x="51" y="0.3919579861665151" /><rect height="0.4870819571221256" width="1" x="52" y="0.5129180428778743" /><rect height="0.538284897636375" width="1" x="53" y="0.461715102363625" /><rect height="0.5409602711448794" width="1" x="54" y="0.45903972885512057" /><rect height="0.6226484053398992" width="1" x="55" y="0.3773515946601008" /><rect height="0.6153081567357669" width="1" x="56" y="0.3846918432642331" /><rect height="0.5329893357164887" width="1" x="57" y="0.46701066428351135" /><rect height="0.6305660477316403" width="1" x="58" y="0.36943395226835973" /><rect height="0.588654700855779" width="1" x="59" y="0.411345299144221" /><rect height="0.5133822283805287" width="1" x="60" y="0.4866177716194713" /><rect height="0.5461255962355565" width="1" x="61" y="0.45387440376444355" /><rect height="0.5910866292501197" width="1" x="62" y="0.4089133707498803" /><rect height="0.5993495726781423" width="1" x="63" y="0.40065042732185774" /><rect height="0.5738155859112132" width="1" x="64" y="0.4261844140887868" /><rect height="0.6121960326014634" width="1" x="65" y="0.3878039673985366" /><rect height="0.6103780778305382" width="1" x="66" y="0.3896219221694618" /><rect height="0.5612450514735051" width="1" x="67" y="0.4387549485264949" /><rect height="0.6565989077765578" width="1" x="68" y="0.3434010922234422" /><rect height="0.608047374671491" width="1" x="69" y="0.39195262532850905" /><rect height="0.9104840962856962" width="1" x="70" y="0.08951590371430385" /><rect height="0.7520612422133828" width="1" x="71" y="0.24793875778661723" /><rect height="0.9629733225780208" width="1" x="72" y="0.03702667742197918" /><rect height="0.7931448126324049" width="1" x="73" y="0.20685518736759512" /><rect height="0.7057663065655129" width="1" x="74" y="0.29423369343448713" /><rect height="0.8886062010389935" width="1" x="75" y="0.11139379896100654" /><rect height="0.9059336908486711" width="1" x="76" y="0.09406630915132885" /><rect height="0.7957599555491927" width="1" x="77" y="0.20424004445080735" /><rect height="0.8961457466795916" width="1" x="78" y="0.10385425332040843" /><rect height="0.9791750364063969" width="1" x="79" y="0.020824963593603085" /><rect height="0.7811973967770643" width="1" x="80" y="0.21880260322293565" /><rect height="0.7965164643948908" width="1" x="81" y="0.20348353560510923" /><rect height="1" width="1" x="82" y="0" /><rect height="0.8010224064108055" width="1" x="83" y="0.19897759358919453" /><rect height="0.7790048140325296" width="1" x="84" y="0.22099518596747036" /><rect height="0.9901672770663982" width="1" x="85" y="0.009832722933601823" /><rect height="0.8021737252084893" width="1" x="86" y="0.19782627479151071" /><rect height="0.7932813563298569" width="1" x="87" y="0.20671864367014314" /><rect height="0.9632940268281562" width="1" x="88" y="0.036705973171843764" /><rect height="0.8673567852126645" width="1" x="89" y="0.13264321478733554" /><rect height="0.8233944447843147" width="1" x="90" y="0.17660555521568533" /><rect height="0.9401888150214466" width="1" x="91" y="0.05981118497855342" /><rect height="0.87383110080709" width="1" x="92" y="0.12616889919290997" /><rect height="0.8592518288341187" width="1" x="93" y="0.14074817116588134" /><rect height="0.9102747082600424" width="1" x="94" y="0.08972529173995758" /><rect height="0.0929922494896167" width="1" x="95" y="0.9070077505103833" /><rect height="0.0020951416301866897" width="1" x="96" y="0.9979048583698134" /><rect height="0" width="1" x="97" y="1" /><rect height="0" width="1" x="98" y="1" /><rect height="0" width="1" x="99" y="1" /></svg>
