<svg id="10b3358c-945f-428e-a7f1-1558f675ef3d" xmlns="http://www.w3.org/2000/svg" preserveAspectRatio="none" viewBox="0 0 100 1" fill="currentColor"><rect height="0.23411352988208708" width="1" x="0" y="0.7658864701179129" /><rect height="0.42052551909375646" width="1" x="1" y="0.5794744809062435" /><rect height="0.5001974742596756" width="1" x="2" y="0.49980252574032435" /><rect height="0.37530317124359047" width="1" x="3" y="0.6246968287564095" /><rect height="0.42995008949444363" width="1" x="4" y="0.5700499105055563" /><rect height="0.4464403037540154" width="1" x="5" y="0.5535596962459846" /><rect height="0.4548719349730626" width="1" x="6" y="0.5451280650269374" /><rect height="0.6521836124575078" width="1" x="7" y="0.3478163875424922" /><rect height="0.6955848912889353" width="1" x="8" y="0.3044151087110647" /><rect height="0.5791051446498953" width="1" x="9" y="0.42089485535010474" /><rect height="0.5500155529539106" width="1" x="10" y="0.4499844470460894" /><rect height="0.6605417476175027" width="1" x="11" y="0.33945825238249727" /><rect height="0.6513101971698821" width="1" x="12" y="0.34868980283011786" /><rect height="0.6163527989006772" width="1" x="13" y="0.3836472010993228" /><rect height="0.6807490807424735" width="1" x="14" y="0.31925091925752647" /><rect height="0.6520778226755387" width="1" x="15" y="0.3479221773244613" /><rect height="0.5902516757472657" width="1" x="16" y="0.40974832425273433" /><rect height="0.6327472455681505" width="1" x="17" y="0.36725275443184946" /><rect height="0.6909906452137362" width="1" x="18" y="0.3090093547862638" /><rect height="0.6172466297602619" width="1" x="19" y="0.3827533702397381" /><rect height="0.5411347791517664" width="1" x="20" y="0.45886522084823356" /><rect height="0.7604997286584891" width="1" x="21" y="0.23950027134151086" /><rect height="0.7422103457210075" width="1" x="22" y="0.2577896542789925" /><rect height="0.5634222734632457" width="1" x="23" y="0.4365777265367543" /><rect height="0.7129492632205677" width="1" x="24" y="0.28705073677943227" /><rect height="0.7731054163625984" width="1" x="25" y="0.22689458363740156" /><rect height="0.6294918898212413" width="1" x="26" y="0.37050811017875873" /><rect height="0.7725077968925274" width="1" x="27" y="0.22749220310747265" /><rect height="0.6744187686663287" width="1" x="28" y="0.32558123133367134" /><rect height="0.6866235687756077" width="1" x="29" y="0.3133764312243923" /><rect height="0.6171749896622968" width="1" x="30" y="0.3828250103377032" /><rect height="0.6934575886908125" width="1" x="31" y="0.30654241130918747" /><rect height="0.6517667635973278" width="1" x="32" y="0.34823323640267223" /><rect height="0.5713427729988843" width="1" x="33" y="0.42865722700111575" /><rect height="0.6861451020073334" width="1" x="34" y="0.31385489799266664" /><rect height="0.6700821299900298" width="1" x="35" y="0.3299178700099702" /><rect height="0.6387809750625645" width="1" x="36" y="0.3612190249374355" /><rect height="0.5934465271627329" width="1" x="37" y="0.40655347283726706" /><rect height="0.6655688038182317" width="1" x="38" y="0.3344311961817683" /><rect height="0.6635023767437683" width="1" x="39" y="0.33649762325623167" /><rect height="0.5759303376141695" width="1" x="40" y="0.42406966238583055" /><rect height="0.7471394071763334" width="1" x="41" y="0.2528605928236666" /><rect height="0.7906201211422922" width="1" x="42" y="0.2093798788577078" /><rect height="0.6794183566429673" width="1" x="43" y="0.32058164335703265" /><rect height="0.6508213370195195" width="1" x="44" y="0.3491786629804805" /><rect height="0.7917140246070745" width="1" x="45" y="0.20828597539292548" /><rect height="0.7175089884195452" width="1" x="46" y="0.28249101158045475" /><rect height="0.8307404319638073" width="1" x="47" y="0.1692595680361927" /><rect height="0.5620113718447733" width="1" x="48" y="0.43798862815522666" /><rect height="0.7533810043125113" width="1" x="49" y="0.24661899568748868" /><rect height="0.7403618084781788" width="1" x="50" y="0.2596381915218212" /><rect height="0.6992786250446359" width="1" x="51" y="0.3007213749553641" /><rect height="0.636772453974021" width="1" x="52" y="0.36322754602597895" /><rect height="0.6666775549717114" width="1" x="53" y="0.33332244502828856" /><rect height="0.6762550565659821" width="1" x="54" y="0.32374494343401794" /><rect height="0.7329710002368206" width="1" x="55" y="0.2670289997631794" /><rect height="1" width="1" x="56" y="0" /><rect height="0.9656565536584334" width="1" x="57" y="0.03434344634156661" /><rect height="0.894004948734643" width="1" x="58" y="0.10599505126535702" /><rect height="0.8439470798679447" width="1" x="59" y="0.1560529201320553" /><rect height="0.9420658034715382" width="1" x="60" y="0.05793419652846177" /><rect height="0.8860528978605223" width="1" x="61" y="0.11394710213947767" /><rect height="0.8501504442057266" width="1" x="62" y="0.1498495557942734" /><rect height="0.8460673298139363" width="1" x="63" y="0.1539326701860637" /><rect height="0.6812780296523191" width="1" x="64" y="0.3187219703476809" /><rect height="0.5658658318306236" width="1" x="65" y="0.43413416816937644" /><rect height="0.6264161911075709" width="1" x="66" y="0.37358380889242915" /><rect height="0.6762491174905031" width="1" x="67" y="0.3237508825094969" /><rect height="0.653603793881416" width="1" x="68" y="0.346396206118584" /><rect height="0.6075533161941513" width="1" x="69" y="0.3924466838058487" /><rect height="0.6446495240202197" width="1" x="70" y="0.3553504759797803" /><rect height="0.6532905076499005" width="1" x="71" y="0.3467094923500995" /><rect height="0.550171082493016" width="1" x="72" y="0.44982891750698395" /><rect height="0.6741544798075146" width="1" x="73" y="0.32584552019248536" /><rect height="0.6764347135992208" width="1" x="74" y="0.3235652864007792" /><rect height="0.5812569459343688" width="1" x="75" y="0.41874305406563117" /><rect height="0.5426897033506037" width="1" x="76" y="0.45731029664939626" /><rect height="0.767143698158367" width="1" x="77" y="0.23285630184163297" /><rect height="0.7975929669468179" width="1" x="78" y="0.20240703305318208" /><rect height="0.6645784629821138" width="1" x="79" y="0.33542153701788624" /><rect height="0.6946465173632584" width="1" x="80" y="0.30535348263674156" /><rect height="0.809828576010144" width="1" x="81" y="0.19017142398985598" /><rect height="0.692764201628643" width="1" x="82" y="0.30723579837135695" /><rect height="0.714460757929965" width="1" x="83" y="0.285539242070035" /><rect height="0.3326208917373355" width="1" x="84" y="0.6673791082626646" /><rect height="0.3727727538973327" width="1" x="85" y="0.6272272461026673" /><rect height="0.37655928570739217" width="1" x="86" y="0.6234407142926078" /><rect height="0.4412399007877441" width="1" x="87" y="0.5587600992122559" /><rect height="0.372808759542424" width="1" x="88" y="0.627191240457576" /><rect height="0.38563382184703765" width="1" x="89" y="0.6143661781529624" /><rect height="0.4124079164906597" width="1" x="90" y="0.5875920835093402" /><rect height="0.3528965242303144" width="1" x="91" y="0.6471034757696856" /><rect height="0.40325505879313533" width="1" x="92" y="0.5967449412068646" /><rect height="0.38816052727112105" width="1" x="93" y="0.611839472728879" /><rect height="0.370751241081179" width="1" x="94" y="0.6292487589188209" /><rect height="0.4182887147914902" width="1" x="95" y="0.5817112852085098" /><rect height="0.41170190889309743" width="1" x="96" y="0.5882980911069026" /><rect height="0.23821260553922724" width="1" x="97" y="0.7617873944607727" /><rect height="0.06217209807492293" width="1" x="98" y="0.937827901925077" /><rect height="0.005200375562107922" width="1" x="99" y="0.994799624437892" /></svg>
