<svg id="2174b434-fe47-4c6a-9f30-de4d4e4c7554" xmlns="http://www.w3.org/2000/svg" preserveAspectRatio="none" viewBox="0 0 100 1" fill="currentColor"><rect height="0.1255122195865164" width="1" x="0" y="0.8744877804134836" /><rect height="0.5577120541550398" width="1" x="1" y="0.44228794584496023" /><rect height="0.6095906284019225" width="1" x="2" y="0.39040937159807754" /><rect height="0.5240903645672398" width="1" x="3" y="0.4759096354327602" /><rect height="0.28588805328034456" width="1" x="4" y="0.7141119467196555" /><rect height="0.4593581686545382" width="1" x="5" y="0.5406418313454617" /><rect height="0.5566870207597489" width="1" x="6" y="0.44331297924025115" /><rect height="0.7369069067641508" width="1" x="7" y="0.2630930932358492" /><rect height="0.597155933428092" width="1" x="8" y="0.40284406657190797" /><rect height="0.6735111167100053" width="1" x="9" y="0.3264888832899947" /><rect height="0.6146147775944932" width="1" x="10" y="0.38538522240550677" /><rect height="0.7795887031218061" width="1" x="11" y="0.22041129687819394" /><rect height="0.4003750730893378" width="1" x="12" y="0.5996249269106622" /><rect height="0.7491591755047324" width="1" x="13" y="0.25084082449526757" /><rect height="0.556713166539107" width="1" x="14" y="0.44328683346089304" /><rect height="0.6633344663171056" width="1" x="15" y="0.3366655336828944" /><rect height="0.6183821467110987" width="1" x="16" y="0.3816178532889013" /><rect height="0.747276679390946" width="1" x="17" y="0.252723320609054" /><rect height="0.4127170693908984" width="1" x="18" y="0.5872829306091016" /><rect height="0.6409453600749195" width="1" x="19" y="0.35905463992508047" /><rect height="0.7099203029107384" width="1" x="20" y="0.2900796970892616" /><rect height="0.6904333781773064" width="1" x="21" y="0.30956662182269357" /><rect height="0.42140935258296536" width="1" x="22" y="0.5785906474170346" /><rect height="0.8901039413573938" width="1" x="23" y="0.10989605864260621" /><rect height="1" width="1" x="24" y="0" /><rect height="0.8635944979772675" width="1" x="25" y="0.1364055020227325" /><rect height="0.8362679989921991" width="1" x="26" y="0.16373200100780094" /><rect height="0.6041939018534981" width="1" x="27" y="0.3958060981465019" /><rect height="0.9986742901420904" width="1" x="28" y="0.001325709857909585" /><rect height="0.7246564206903437" width="1" x="29" y="0.27534357930965625" /><rect height="0.4696067199406728" width="1" x="30" y="0.5303932800593272" /><rect height="0.4800519587942518" width="1" x="31" y="0.5199480412057482" /><rect height="0.8116903721732848" width="1" x="32" y="0.18830962782671523" /><rect height="0.7565483292846991" width="1" x="33" y="0.24345167071530094" /><rect height="0.6925820858627395" width="1" x="34" y="0.3074179141372605" /><rect height="0.7220846267571153" width="1" x="35" y="0.27791537324288473" /><rect height="0.5335040335806883" width="1" x="36" y="0.4664959664193117" /><rect height="0.6108093782533669" width="1" x="37" y="0.3891906217466331" /><rect height="0.7483593523452764" width="1" x="38" y="0.2516406476547236" /><rect height="0.67914731482846" width="1" x="39" y="0.32085268517154" /><rect height="0.7365551271873322" width="1" x="40" y="0.2634448728126678" /><rect height="0.47054261999724284" width="1" x="41" y="0.5294573800027571" /><rect height="0.5745433996168455" width="1" x="42" y="0.42545660038315447" /><rect height="0.4237422691684216" width="1" x="43" y="0.5762577308315784" /><rect height="0.5823693067565447" width="1" x="44" y="0.41763069324345525" /><rect height="0.6250219862235512" width="1" x="45" y="0.3749780137764488" /><rect height="0.7271884017322768" width="1" x="46" y="0.27281159826772317" /><rect height="0.6088009070208549" width="1" x="47" y="0.3911990929791451" /><rect height="0.8896814493318566" width="1" x="48" y="0.11031855066814344" /><rect height="0.7266755879235023" width="1" x="49" y="0.2733244120764977" /><rect height="0.8538629200557144" width="1" x="50" y="0.1461370799442856" /><rect height="0.8418554708854863" width="1" x="51" y="0.1581445291145137" /><rect height="0.5160968867507452" width="1" x="52" y="0.48390311324925483" /><rect height="0.745246816157141" width="1" x="53" y="0.25475318384285905" /><rect height="0.6651355539815268" width="1" x="54" y="0.3348644460184732" /><rect height="0.6357346250932929" width="1" x="55" y="0.3642653749067071" /><rect height="0.838119001326304" width="1" x="56" y="0.16188099867369599" /><rect height="0.7020522059907112" width="1" x="57" y="0.29794779400928884" /><rect height="0.6772511516027363" width="1" x="58" y="0.3227488483972637" /><rect height="0.48429351727285264" width="1" x="59" y="0.5157064827271474" /><rect height="0.42039620363283725" width="1" x="60" y="0.5796037963671627" /><rect height="0.5498849585708242" width="1" x="61" y="0.4501150414291758" /><rect height="0.47503791138006934" width="1" x="62" y="0.5249620886199307" /><rect height="0.28225854372762754" width="1" x="63" y="0.7177414562723725" /><rect height="0.43010460688632296" width="1" x="64" y="0.569895393113677" /><rect height="0.44038524617439717" width="1" x="65" y="0.5596147538256029" /><rect height="0.5915518233115769" width="1" x="66" y="0.40844817668842315" /><rect height="0.5838970521822219" width="1" x="67" y="0.4161029478177781" /><rect height="0.5083630840610576" width="1" x="68" y="0.49163691593894243" /><rect height="0.4706418551143522" width="1" x="69" y="0.5293581448856478" /><rect height="0.8315463089290214" width="1" x="70" y="0.16845369107097863" /><rect height="0.6617728502227146" width="1" x="71" y="0.3382271497772854" /><rect height="0.46683883266225834" width="1" x="72" y="0.5331611673377417" /><rect height="0.39218312503862446" width="1" x="73" y="0.6078168749613755" /><rect height="0.5609434347948032" width="1" x="74" y="0.43905656520519676" /><rect height="0.4454402949243912" width="1" x="75" y="0.5545597050756088" /><rect height="0.6712982330206932" width="1" x="76" y="0.32870176697930675" /><rect height="0.5246940943815097" width="1" x="77" y="0.4753059056184903" /><rect height="0.8399034507674975" width="1" x="78" y="0.1600965492325025" /><rect height="0.743404727156908" width="1" x="79" y="0.256595272843092" /><rect height="0.5420037887611179" width="1" x="80" y="0.4579962112388821" /><rect height="0.6558799480887436" width="1" x="81" y="0.3441200519112564" /><rect height="0.5342254194020698" width="1" x="82" y="0.4657745805979302" /><rect height="0.350606582081109" width="1" x="83" y="0.6493934179188909" /><rect height="0.6557504076364691" width="1" x="84" y="0.3442495923635309" /><rect height="0.48736921168098346" width="1" x="85" y="0.5126307883190165" /><rect height="0.9224670682024539" width="1" x="86" y="0.07753293179754606" /><rect height="0.7269412052728907" width="1" x="87" y="0.27305879472710926" /><rect height="0.5230391853925908" width="1" x="88" y="0.47696081460740924" /><rect height="0.867106945745131" width="1" x="89" y="0.13289305425486897" /><rect height="0.762274849186391" width="1" x="90" y="0.237725150813609" /><rect height="0.4097703212127839" width="1" x="91" y="0.5902296787872161" /><rect height="0.4756012340807857" width="1" x="92" y="0.5243987659192143" /><rect height="0.3731329536649252" width="1" x="93" y="0.6268670463350747" /><rect height="0.28641215731202374" width="1" x="94" y="0.7135878426879763" /><rect height="0.5294977871163108" width="1" x="95" y="0.4705022128836892" /><rect height="0.18492850317790063" width="1" x="96" y="0.8150714968220993" /><rect height="0.06412549498714103" width="1" x="97" y="0.935874505012859" /><rect height="0.000007130667097675879" width="1" x="98" y="0.9999928693329023" /><rect height="0" width="1" x="99" y="1" /></svg>
