<svg id="28604fdc-0adb-40b0-bd67-ed39d61f007d" xmlns="http://www.w3.org/2000/svg" preserveAspectRatio="none" viewBox="0 0 100 1" fill="currentColor"><rect height="0.09822883972781776" width="1" x="0" y="0.9017711602721823" /><rect height="0.1388352288277127" width="1" x="1" y="0.8611647711722873" /><rect height="0.13276225974792305" width="1" x="2" y="0.867237740252077" /><rect height="0.14137942773380396" width="1" x="3" y="0.858620572266196" /><rect height="0.1492666779697673" width="1" x="4" y="0.8507333220302327" /><rect height="0.15181988820610448" width="1" x="5" y="0.8481801117938955" /><rect height="0.15408106459188017" width="1" x="6" y="0.8459189354081198" /><rect height="0.14854243402037495" width="1" x="7" y="0.8514575659796251" /><rect height="0.3215392820573067" width="1" x="8" y="0.6784607179426934" /><rect height="0.3821131102172465" width="1" x="9" y="0.6178868897827535" /><rect height="0.33158024022203914" width="1" x="10" y="0.6684197597779609" /><rect height="0.34682207095054174" width="1" x="11" y="0.6531779290494583" /><rect height="0.2766137957458511" width="1" x="12" y="0.7233862042541489" /><rect height="0.3621920628203194" width="1" x="13" y="0.6378079371796805" /><rect height="0.3253233732546388" width="1" x="14" y="0.6746766267453612" /><rect height="0.44181751188494334" width="1" x="15" y="0.5581824881150567" /><rect height="0.5746675486645209" width="1" x="16" y="0.42533245133547914" /><rect height="0.5769390713924307" width="1" x="17" y="0.4230609286075693" /><rect height="0.5226715056397577" width="1" x="18" y="0.4773284943602423" /><rect height="0.557224283332243" width="1" x="19" y="0.44277571666775695" /><rect height="0.757947659523908" width="1" x="20" y="0.24205234047609203" /><rect height="0.729822964073495" width="1" x="21" y="0.270177035926505" /><rect height="0.6658014677120698" width="1" x="22" y="0.3341985322879302" /><rect height="1" width="1" x="23" y="0" /><rect height="0.7068177054616671" width="1" x="24" y="0.2931822945383329" /><rect height="0.6893100258057797" width="1" x="25" y="0.3106899741942203" /><rect height="0.5697767326118038" width="1" x="26" y="0.43022326738819616" /><rect height="0.5878858351233618" width="1" x="27" y="0.4121141648766382" /><rect height="0.8935181167788299" width="1" x="28" y="0.10648188322117014" /><rect height="0.6259023011599918" width="1" x="29" y="0.3740976988400082" /><rect height="0.7063884991395848" width="1" x="30" y="0.2936115008604152" /><rect height="0.95729697472956" width="1" x="31" y="0.04270302527044001" /><rect height="0.5358754407207996" width="1" x="32" y="0.4641245592792004" /><rect height="0.8353616613955946" width="1" x="33" y="0.16463833860440535" /><rect height="0.5724764604028798" width="1" x="34" y="0.4275235395971202" /><rect height="0.5695177403054774" width="1" x="35" y="0.4304822596945226" /><rect height="0.547166637518907" width="1" x="36" y="0.45283336248109296" /><rect height="0.5993682723744654" width="1" x="37" y="0.40063172762553456" /><rect height="0.7478876774397676" width="1" x="38" y="0.2521123225602324" /><rect height="0.8980748461065045" width="1" x="39" y="0.10192515389349555" /><rect height="0.5865271267740639" width="1" x="40" y="0.41347287322593607" /><rect height="0.8183138933352201" width="1" x="41" y="0.1816861066647799" /><rect height="0.5621391295989491" width="1" x="42" y="0.43786087040105093" /><rect height="0.5099218083537034" width="1" x="43" y="0.4900781916462966" /><rect height="0.5038431654733885" width="1" x="44" y="0.4961568345266115" /><rect height="0.6113857156397977" width="1" x="45" y="0.3886142843602023" /><rect height="0.7033246468559802" width="1" x="46" y="0.2966753531440198" /><rect height="0.850360186207458" width="1" x="47" y="0.149639813792542" /><rect height="0.40255915103923995" width="1" x="48" y="0.5974408489607601" /><rect height="0.3545788237744257" width="1" x="49" y="0.6454211762255744" /><rect height="0.36117545126739353" width="1" x="50" y="0.6388245487326065" /><rect height="0.6341436632993217" width="1" x="51" y="0.3658563367006783" /><rect height="0.477797751038973" width="1" x="52" y="0.522202248961027" /><rect height="0.44973079485272816" width="1" x="53" y="0.5502692051472718" /><rect height="0.3896766200703017" width="1" x="54" y="0.6103233799296983" /><rect height="0.6043612168366359" width="1" x="55" y="0.3956387831633641" /><rect height="0.6648012100547754" width="1" x="56" y="0.33519878994522456" /><rect height="0.6101938837765349" width="1" x="57" y="0.38980611622346506" /><rect height="0.6380025151623975" width="1" x="58" y="0.3619974848376025" /><rect height="0.706812699167086" width="1" x="59" y="0.293187300832914" /><rect height="0.6490634224097765" width="1" x="60" y="0.35093657759022345" /><rect height="0.6685432483776268" width="1" x="61" y="0.3314567516223732" /><rect height="0.73050248512463" width="1" x="62" y="0.26949751487537" /><rect height="0.9397265495149233" width="1" x="63" y="0.06027345048507671" /><rect height="0.6141031323383934" width="1" x="64" y="0.3858968676616066" /><rect height="0.5405129382677152" width="1" x="65" y="0.4594870617322848" /><rect height="0.6624993158064072" width="1" x="66" y="0.3375006841935928" /><rect height="0.67158106792941" width="1" x="67" y="0.32841893207059003" /><rect height="0.6009525977328828" width="1" x="68" y="0.3990474022671172" /><rect height="0.6880784773388406" width="1" x="69" y="0.31192152266115936" /><rect height="0.7964951265391018" width="1" x="70" y="0.20350487346089818" /><rect height="0.8918677083319426" width="1" x="71" y="0.10813229166805738" /><rect height="0.6863900210531375" width="1" x="72" y="0.3136099789468625" /><rect height="0.6976972379939044" width="1" x="73" y="0.3023027620060956" /><rect height="0.5686573251434803" width="1" x="74" y="0.43134267485651967" /><rect height="0.5584808632720873" width="1" x="75" y="0.44151913672791265" /><rect height="0.6887032629025561" width="1" x="76" y="0.3112967370974439" /><rect height="0.7909608347562335" width="1" x="77" y="0.20903916524376653" /><rect height="0.9776155219162226" width="1" x="78" y="0.022384478083777415" /><rect height="0.6945556212678073" width="1" x="79" y="0.30544437873219266" /><rect height="0.5251132423834234" width="1" x="80" y="0.4748867576165766" /><rect height="0.4241763310402279" width="1" x="81" y="0.5758236689597721" /><rect height="0.4744104921254323" width="1" x="82" y="0.5255895078745677" /><rect height="0.46076600312125776" width="1" x="83" y="0.5392339968787423" /><rect height="0.48965833040743223" width="1" x="84" y="0.5103416695925678" /><rect height="0.7486483004631156" width="1" x="85" y="0.2513516995368844" /><rect height="0.8370240849494764" width="1" x="86" y="0.16297591505052356" /><rect height="0.645790974518628" width="1" x="87" y="0.354209025481372" /><rect height="0.7005408133159425" width="1" x="88" y="0.29945918668405747" /><rect height="0.5632852373050381" width="1" x="89" y="0.4367147626949619" /><rect height="0.7786236561436579" width="1" x="90" y="0.22137634385634208" /><rect height="0.6983467212775529" width="1" x="91" y="0.30165327872244707" /><rect height="0.7116140694232882" width="1" x="92" y="0.2883859305767118" /><rect height="0.8010311631825081" width="1" x="93" y="0.1989688368174919" /><rect height="0.8014940785547695" width="1" x="94" y="0.1985059214452305" /><rect height="0.6818296204427701" width="1" x="95" y="0.31817037955722993" /><rect height="0.4260433451659887" width="1" x="96" y="0.5739566548340114" /><rect height="0.06103040222573181" width="1" x="97" y="0.9389695977742681" /><rect height="0.00010780220997867985" width="1" x="98" y="0.9998921977900214" /><rect height="0" width="1" x="99" y="1" /></svg>
