<svg id="2abadebb-6fae-4db0-9dba-d3063d9cc2e1" xmlns="http://www.w3.org/2000/svg" preserveAspectRatio="none" viewBox="0 0 100 1" fill="currentColor"><rect height="0.08588445721166198" width="1" x="0" y="0.9141155427883381" /><rect height="0.2938323682366686" width="1" x="1" y="0.7061676317633314" /><rect height="0.5912308620973495" width="1" x="2" y="0.40876913790265046" /><rect height="0.5814399226332069" width="1" x="3" y="0.4185600773667931" /><rect height="0.5638940119469981" width="1" x="4" y="0.43610598805300194" /><rect height="0.7602424710928298" width="1" x="5" y="0.23975752890717017" /><rect height="0.4769271513066383" width="1" x="6" y="0.5230728486933617" /><rect height="0.33117807007707256" width="1" x="7" y="0.6688219299229274" /><rect height="0.33556017359810464" width="1" x="8" y="0.6644398264018954" /><rect height="0.3509134419236083" width="1" x="9" y="0.6490865580763917" /><rect height="0.5083558204435071" width="1" x="10" y="0.49164417955649287" /><rect height="0.39691996179378347" width="1" x="11" y="0.6030800382062165" /><rect height="0.6735332876831079" width="1" x="12" y="0.32646671231689206" /><rect height="0.484247888677074" width="1" x="13" y="0.515752111322926" /><rect height="0.5616838729842125" width="1" x="14" y="0.4383161270157875" /><rect height="0.6591550572735363" width="1" x="15" y="0.3408449427264637" /><rect height="0.4285617713559946" width="1" x="16" y="0.5714382286440054" /><rect height="0.30142748413972786" width="1" x="17" y="0.6985725158602721" /><rect height="0.28811893235734104" width="1" x="18" y="0.711881067642659" /><rect height="0.4325072551251127" width="1" x="19" y="0.5674927448748873" /><rect height="0.48045351192592256" width="1" x="20" y="0.5195464880740774" /><rect height="0.4129842284038248" width="1" x="21" y="0.5870157715961752" /><rect height="0.7527738079048057" width="1" x="22" y="0.24722619209519425" /><rect height="0.4756729630575153" width="1" x="23" y="0.5243270369424847" /><rect height="0.6618940707992049" width="1" x="24" y="0.3381059292007951" /><rect height="0.5751570518861735" width="1" x="25" y="0.4248429481138265" /><rect height="0.35987329278893454" width="1" x="26" y="0.6401267072110655" /><rect height="0.298413296781341" width="1" x="27" y="0.701586703218659" /><rect height="0.28330498088496225" width="1" x="28" y="0.7166950191150377" /><rect height="0.4572410880659654" width="1" x="29" y="0.5427589119340346" /><rect height="0.4242273858406362" width="1" x="30" y="0.5757726141593638" /><rect height="0.5364752458869068" width="1" x="31" y="0.46352475411309324" /><rect height="0.6517738770959141" width="1" x="32" y="0.34822612290408594" /><rect height="0.5886604521917278" width="1" x="33" y="0.4113395478082722" /><rect height="0.8072120993775187" width="1" x="34" y="0.1927879006224813" /><rect height="0.5813540302229941" width="1" x="35" y="0.41864596977700586" /><rect height="0.40557123622242" width="1" x="36" y="0.59442876377758" /><rect height="0.3686581776334573" width="1" x="37" y="0.6313418223665427" /><rect height="0.35210639206545" width="1" x="38" y="0.64789360793455" /><rect height="0.7229476684584778" width="1" x="39" y="0.2770523315415222" /><rect height="0.8025834528271726" width="1" x="40" y="0.19741654717282742" /><rect height="0.8041120196089191" width="1" x="41" y="0.1958879803910809" /><rect height="0.7502773609079783" width="1" x="42" y="0.24972263909202175" /><rect height="0.8042893715300063" width="1" x="43" y="0.19571062846999365" /><rect height="0.9026282282224964" width="1" x="44" y="0.09737177177750356" /><rect height="0.7657801456512593" width="1" x="45" y="0.2342198543487407" /><rect height="0.640841681996076" width="1" x="46" y="0.35915831800392395" /><rect height="0.5301207981313629" width="1" x="47" y="0.4698792018686371" /><rect height="0.6974312602245769" width="1" x="48" y="0.3025687397754231" /><rect height="0.7767449480549743" width="1" x="49" y="0.2232550519450257" /><rect height="0.7714617695268045" width="1" x="50" y="0.22853823047319555" /><rect height="0.8061265147484427" width="1" x="51" y="0.19387348525155734" /><rect height="0.6083417436318334" width="1" x="52" y="0.39165825636816665" /><rect height="0.825617729465948" width="1" x="53" y="0.17438227053405198" /><rect height="0.798423238032523" width="1" x="54" y="0.20157676196747698" /><rect height="0.7035431414512795" width="1" x="55" y="0.2964568585487205" /><rect height="0.6156068099956498" width="1" x="56" y="0.38439319000435024" /><rect height="0.5832460491479553" width="1" x="57" y="0.4167539508520447" /><rect height="0.6522995704584189" width="1" x="58" y="0.3477004295415811" /><rect height="0.7167578478225082" width="1" x="59" y="0.2832421521774918" /><rect height="0.6379889405568852" width="1" x="60" y="0.36201105944311485" /><rect height="0.8732768829326215" width="1" x="61" y="0.1267231170673785" /><rect height="0.6049847819326906" width="1" x="62" y="0.39501521806730944" /><rect height="0.8878420088644149" width="1" x="63" y="0.11215799113558511" /><rect height="0.7447619547521964" width="1" x="64" y="0.2552380452478036" /><rect height="0.5916189685434954" width="1" x="65" y="0.4083810314565046" /><rect height="0.5619487079157014" width="1" x="66" y="0.4380512920842986" /><rect height="0.532480453511926" width="1" x="67" y="0.46751954648807403" /><rect height="0.6896436816986339" width="1" x="68" y="0.3103563183013661" /><rect height="0.7130756083846899" width="1" x="69" y="0.28692439161531014" /><rect height="0.6614614275477637" width="1" x="70" y="0.3385385724522363" /><rect height="0.7875976131453563" width="1" x="71" y="0.21240238685464374" /><rect height="0.7620430305069164" width="1" x="72" y="0.23795696949308365" /><rect height="0.8927665070499377" width="1" x="73" y="0.10723349295006235" /><rect height="0.7809353842532172" width="1" x="74" y="0.21906461574678282" /><rect height="0.6171544639796658" width="1" x="75" y="0.3828455360203342" /><rect height="0.47329740167506107" width="1" x="76" y="0.5267025983249389" /><rect height="0.5659124835869943" width="1" x="77" y="0.4340875164130057" /><rect height="0.7754541760015016" width="1" x="78" y="0.22454582399849843" /><rect height="0.7919407469617548" width="1" x="79" y="0.20805925303824524" /><rect height="1" width="1" x="80" y="0" /><rect height="0.938845399228718" width="1" x="81" y="0.061154600771281986" /><rect height="0.7567447412769498" width="1" x="82" y="0.2432552587230502" /><rect height="0.785227618863564" width="1" x="83" y="0.21477238113643604" /><rect height="0.518994549808452" width="1" x="84" y="0.48100545019154795" /><rect height="0.4945963335075041" width="1" x="85" y="0.5054036664924959" /><rect height="0.17698131124307792" width="1" x="86" y="0.8230186887569221" /><rect height="0.06014218375090565" width="1" x="87" y="0.9398578162490944" /><rect height="0.059185437737148544" width="1" x="88" y="0.9408145622628514" /><rect height="0.04916227064539398" width="1" x="89" y="0.950837729354606" /><rect height="0.05378455479498356" width="1" x="90" y="0.9462154452050164" /><rect height="0.07092406713287158" width="1" x="91" y="0.9290759328671284" /><rect height="0.057026197980414944" width="1" x="92" y="0.942973802019585" /><rect height="0.005247390023914673" width="1" x="93" y="0.9947526099760853" /><rect height="0" width="1" x="94" y="1" /><rect height="0" width="1" x="95" y="1" /><rect height="0" width="1" x="96" y="1" /><rect height="0" width="1" x="97" y="1" /><rect height="0" width="1" x="98" y="1" /><rect height="0" width="1" x="99" y="1" /></svg>
