<svg id="42232f2b-b7b2-46f8-a3de-1eefbfbbd8c2" xmlns="http://www.w3.org/2000/svg" preserveAspectRatio="none" viewBox="0 0 100 1" fill="currentColor"><rect height="0.7256373106743179" width="1" x="0" y="0.2743626893256821" /><rect height="0.9421417059857558" width="1" x="1" y="0.05785829401424425" /><rect height="0.821271934740601" width="1" x="2" y="0.178728065259399" /><rect height="0.9346364474419803" width="1" x="3" y="0.06536355255801973" /><rect height="0.8670553223981374" width="1" x="4" y="0.13294467760186257" /><rect height="0.9923933470066393" width="1" x="5" y="0.0076066529933607185" /><rect height="0.8301939565459256" width="1" x="6" y="0.16980604345407435" /><rect height="0.8511932988615197" width="1" x="7" y="0.14880670113848027" /><rect height="0.8034844512991077" width="1" x="8" y="0.19651554870089227" /><rect height="0.664911691987114" width="1" x="9" y="0.335088308012886" /><rect height="0.6455757014754272" width="1" x="10" y="0.3544242985245728" /><rect height="0.6755070670896723" width="1" x="11" y="0.32449293291032766" /><rect height="0.8491229897429513" width="1" x="12" y="0.1508770102570487" /><rect height="0.8998115925584751" width="1" x="13" y="0.10018840744152491" /><rect height="0.9233109633265932" width="1" x="14" y="0.07668903667340676" /><rect height="0.7966603289387691" width="1" x="15" y="0.20333967106123085" /><rect height="0.8533681063413951" width="1" x="16" y="0.14663189365860485" /><rect height="0.7343334366820977" width="1" x="17" y="0.2656665633179023" /><rect height="0.5998361134610789" width="1" x="18" y="0.4001638865389211" /><rect height="0.7890960960722757" width="1" x="19" y="0.2109039039277243" /><rect height="0.8377633625986225" width="1" x="20" y="0.1622366374013775" /><rect height="0.8608343935491057" width="1" x="21" y="0.13916560645089426" /><rect height="0.8149509909583051" width="1" x="22" y="0.18504900904169486" /><rect height="0.6865901012116636" width="1" x="23" y="0.31340989878833636" /><rect height="0.7726553654390467" width="1" x="24" y="0.22734463456095333" /><rect height="0.9970361091845783" width="1" x="25" y="0.002963890815421699" /><rect height="0.9212185819468907" width="1" x="26" y="0.07878141805310934" /><rect height="0.9855250801240323" width="1" x="27" y="0.014474919875967718" /><rect height="0.8976857579079911" width="1" x="28" y="0.1023142420920089" /><rect height="0.9242738657185711" width="1" x="29" y="0.07572613428142894" /><rect height="0.8234632964163271" width="1" x="30" y="0.1765367035836729" /><rect height="0.8468340272875226" width="1" x="31" y="0.15316597271247745" /><rect height="0.9121596431467182" width="1" x="32" y="0.08784035685328184" /><rect height="0.6981321693894295" width="1" x="33" y="0.30186783061057054" /><rect height="0.7067420756271541" width="1" x="34" y="0.2932579243728459" /><rect height="0.823634701319197" width="1" x="35" y="0.17636529868080297" /><rect height="0.8950915774665666" width="1" x="36" y="0.10490842253343335" /><rect height="0.8757800733695756" width="1" x="37" y="0.12421992663042436" /><rect height="0.9001502638152524" width="1" x="38" y="0.09984973618474757" /><rect height="0.9428931975015581" width="1" x="39" y="0.05710680249844191" /><rect height="0.9997968662217497" width="1" x="40" y="0.00020313377825031953" /><rect height="0.6955038459190631" width="1" x="41" y="0.3044961540809369" /><rect height="0.7023372800145677" width="1" x="42" y="0.29766271998543226" /><rect height="0.6952338055992499" width="1" x="43" y="0.30476619440075015" /><rect height="0.9041601728809853" width="1" x="44" y="0.09583982711901473" /><rect height="0.8623532410184003" width="1" x="45" y="0.13764675898159973" /><rect height="0.8625122302743824" width="1" x="46" y="0.1374877697256176" /><rect height="0.7934412276039836" width="1" x="47" y="0.2065587723960164" /><rect height="0.8110414417049168" width="1" x="48" y="0.18895855829508323" /><rect height="0.8196954924649095" width="1" x="49" y="0.18030450753509053" /><rect height="0.8893496856599623" width="1" x="50" y="0.11065031434003769" /><rect height="0.9316584165842693" width="1" x="51" y="0.06834158341573071" /><rect height="0.811338037713907" width="1" x="52" y="0.188661962286093" /><rect height="0.9927413299985826" width="1" x="53" y="0.007258670001417444" /><rect height="0.9153835727886267" width="1" x="54" y="0.0846164272113733" /><rect height="0.8674036502691609" width="1" x="55" y="0.1325963497308391" /><rect height="0.981065793616771" width="1" x="56" y="0.018934206383228958" /><rect height="0.8422102334589958" width="1" x="57" y="0.15778976654100418" /><rect height="0.6382980631245976" width="1" x="58" y="0.3617019368754024" /><rect height="0.8122909386125584" width="1" x="59" y="0.1877090613874416" /><rect height="0.9562610555300154" width="1" x="60" y="0.04373894446998461" /><rect height="0.87603631852618" width="1" x="61" y="0.12396368147381998" /><rect height="0.7882111363524279" width="1" x="62" y="0.2117888636475721" /><rect height="0.8771978712683653" width="1" x="63" y="0.12280212873163465" /><rect height="0.8138111655981739" width="1" x="64" y="0.1861888344018261" /><rect height="0.837301224631126" width="1" x="65" y="0.162698775368874" /><rect height="0.804711186187455" width="1" x="66" y="0.19528881381254504" /><rect height="0.8232442982003865" width="1" x="67" y="0.17675570179961353" /><rect height="0.7483962260572009" width="1" x="68" y="0.2516037739427991" /><rect height="1" width="1" x="69" y="0" /><rect height="0.7890767828437834" width="1" x="70" y="0.21092321715621665" /><rect height="0.9118996043202312" width="1" x="71" y="0.0881003956797688" /><rect height="0.6704532090481096" width="1" x="72" y="0.32954679095189043" /><rect height="0.7793449849580989" width="1" x="73" y="0.2206550150419011" /><rect height="0.6816476391130124" width="1" x="74" y="0.3183523608869876" /><rect height="0.9633717724060178" width="1" x="75" y="0.03662822759398221" /><rect height="0.7115365846003904" width="1" x="76" y="0.2884634153996096" /><rect height="0.9438943814714404" width="1" x="77" y="0.05610561852855955" /><rect height="0.7065210081367321" width="1" x="78" y="0.29347899186326787" /><rect height="0.835878253546133" width="1" x="79" y="0.164121746453867" /><rect height="0.7747680946844823" width="1" x="80" y="0.22523190531551773" /><rect height="0.7577258949353474" width="1" x="81" y="0.24227410506465263" /><rect height="0.6773680346065465" width="1" x="82" y="0.3226319653934535" /><rect height="0.7396256061680934" width="1" x="83" y="0.26037439383190664" /><rect height="0.7340247699052997" width="1" x="84" y="0.26597523009470025" /><rect height="0.8660065451151845" width="1" x="85" y="0.1339934548848155" /><rect height="0.7768894459069234" width="1" x="86" y="0.22311055409307656" /><rect height="0.9396578868500021" width="1" x="87" y="0.060342113149997934" /><rect height="0.8463046378993829" width="1" x="88" y="0.15369536210061707" /><rect height="0.7695921494485211" width="1" x="89" y="0.23040785055147894" /><rect height="0.5954006236103528" width="1" x="90" y="0.40459937638964716" /><rect height="0.6594639820359385" width="1" x="91" y="0.3405360179640615" /><rect height="0.6583034639309938" width="1" x="92" y="0.3416965360690062" /><rect height="0.8849497183544992" width="1" x="93" y="0.1150502816455008" /><rect height="0.7692941739232099" width="1" x="94" y="0.23070582607679013" /><rect height="0.7588781359423666" width="1" x="95" y="0.24112186405763336" /><rect height="0.7711092725224146" width="1" x="96" y="0.22889072747758543" /><rect height="0.46539017722301296" width="1" x="97" y="0.5346098227769871" /><rect height="0.0029718230342668404" width="1" x="98" y="0.9970281769657332" /><rect height="0" width="1" x="99" y="1" /></svg>
