<svg id="4ce92862-3d2d-47a4-975d-4b293173cec4" xmlns="http://www.w3.org/2000/svg" preserveAspectRatio="none" viewBox="0 0 100 1" fill="currentColor"><rect height="0.49119189800065216" width="1" x="0" y="0.5088081019993478" /><rect height="0.5801875138164654" width="1" x="1" y="0.4198124861835346" /><rect height="0.6558981316526732" width="1" x="2" y="0.3441018683473268" /><rect height="0.4741310015233631" width="1" x="3" y="0.5258689984766369" /><rect height="0.5140254882780988" width="1" x="4" y="0.4859745117219012" /><rect height="0.6242773898331043" width="1" x="5" y="0.3757226101668957" /><rect height="0.5278937277220785" width="1" x="6" y="0.47210627227792146" /><rect height="0.6213033881464721" width="1" x="7" y="0.3786966118535279" /><rect height="0.5260226351629584" width="1" x="8" y="0.47397736483704156" /><rect height="0.5185979857700642" width="1" x="9" y="0.4814020142299358" /><rect height="0.7481576842183336" width="1" x="10" y="0.2518423157816664" /><rect height="0.6754952375035339" width="1" x="11" y="0.3245047624964661" /><rect height="0.7952080765698274" width="1" x="12" y="0.2047919234301726" /><rect height="0.5936218139050352" width="1" x="13" y="0.4063781860949648" /><rect height="0.6411620134978739" width="1" x="14" y="0.35883798650212606" /><rect height="0.7005206790645211" width="1" x="15" y="0.2994793209354789" /><rect height="0.6426391411372101" width="1" x="16" y="0.3573608588627899" /><rect height="0.7343770995609074" width="1" x="17" y="0.26562290043909265" /><rect height="0.6454985173337341" width="1" x="18" y="0.3545014826662659" /><rect height="0.680912977580121" width="1" x="19" y="0.31908702241987896" /><rect height="0.7466275784113003" width="1" x="20" y="0.25337242158869966" /><rect height="0.6192097872830243" width="1" x="21" y="0.38079021271697566" /><rect height="0.6682405998669767" width="1" x="22" y="0.3317594001330233" /><rect height="0.5834278512007021" width="1" x="23" y="0.41657214879929794" /><rect height="0.613606141999791" width="1" x="24" y="0.386393858000209" /><rect height="0.8269362195839095" width="1" x="25" y="0.1730637804160905" /><rect height="0.6392957371358172" width="1" x="26" y="0.3607042628641828" /><rect height="0.7244094981185526" width="1" x="27" y="0.2755905018814474" /><rect height="0.6855057030997526" width="1" x="28" y="0.31449429690024744" /><rect height="0.6678837196645808" width="1" x="29" y="0.3321162803354192" /><rect height="0.8502663597785899" width="1" x="30" y="0.1497336402214101" /><rect height="0.683262318507634" width="1" x="31" y="0.31673768149236603" /><rect height="0.884955500747233" width="1" x="32" y="0.11504449925276705" /><rect height="0.6201725450759924" width="1" x="33" y="0.3798274549240076" /><rect height="0.6470791932099328" width="1" x="34" y="0.3529208067900672" /><rect height="0.7565152309824031" width="1" x="35" y="0.24348476901759686" /><rect height="0.6612282169427071" width="1" x="36" y="0.33877178305729294" /><rect height="0.7814775803618602" width="1" x="37" y="0.2185224196381398" /><rect height="0.9946217527393325" width="1" x="38" y="0.00537824726066749" /><rect height="0.8496715594412634" width="1" x="39" y="0.15032844055873662" /><rect height="0.8725812456323113" width="1" x="40" y="0.12741875436768868" /><rect height="0.6546757808379894" width="1" x="41" y="0.3453242191620106" /><rect height="1" width="1" x="42" y="0" /><rect height="0.5971988034640017" width="1" x="43" y="0.40280119653599833" /><rect height="0.6576218485816541" width="1" x="44" y="0.34237815141834593" /><rect height="0.798348237055146" width="1" x="45" y="0.20165176294485399" /><rect height="0.6029059969840974" width="1" x="46" y="0.3970940030159026" /><rect height="0.8273234418278046" width="1" x="47" y="0.1726765581721954" /><rect height="0.9398009080457943" width="1" x="48" y="0.0601990919542057" /><rect height="0.8831633938199523" width="1" x="49" y="0.11683660618004765" /><rect height="0.7991197918246982" width="1" x="50" y="0.20088020817530183" /><rect height="0.7065043222960545" width="1" x="51" y="0.29349567770394547" /><rect height="0.9420178035540645" width="1" x="52" y="0.0579821964459355" /><rect height="0.721340617349772" width="1" x="53" y="0.27865938265022805" /><rect height="0.6400817404965595" width="1" x="54" y="0.3599182595034405" /><rect height="0.8196589458211544" width="1" x="55" y="0.1803410541788456" /><rect height="0.657079063172612" width="1" x="56" y="0.342920936827388" /><rect height="0.8470592541540903" width="1" x="57" y="0.15294074584590966" /><rect height="0.6183467247692681" width="1" x="58" y="0.3816532752307319" /><rect height="0.7339585720361003" width="1" x="59" y="0.26604142796389973" /><rect height="0.8259373403129662" width="1" x="60" y="0.17406265968703383" /><rect height="0.7016428529802868" width="1" x="61" y="0.29835714701971316" /><rect height="0.8600470927748857" width="1" x="62" y="0.13995290722511433" /><rect height="0.7129849970645279" width="1" x="63" y="0.2870150029354721" /><rect height="0.7638652293208151" width="1" x="64" y="0.23613477067918487" /><rect height="0.8427160076423416" width="1" x="65" y="0.15728399235765844" /><rect height="0.6329104230691986" width="1" x="66" y="0.36708957693080135" /><rect height="0.8017398030271725" width="1" x="67" y="0.19826019697282748" /><rect height="0.5252125508168992" width="1" x="68" y="0.4747874491831008" /><rect height="0.7084664409796723" width="1" x="69" y="0.29153355902032774" /><rect height="0.4721187943902863" width="1" x="70" y="0.5278812056097137" /><rect height="0.4311666707604342" width="1" x="71" y="0.5688333292395658" /><rect height="0.38941216869982426" width="1" x="72" y="0.6105878313001758" /><rect height="0.3164053638949934" width="1" x="73" y="0.6835946361050066" /><rect height="0.4117106794835303" width="1" x="74" y="0.5882893205164696" /><rect height="0.3391325162173396" width="1" x="75" y="0.6608674837826605" /><rect height="0.38193550437864554" width="1" x="76" y="0.6180644956213545" /><rect height="0.33680244007808025" width="1" x="77" y="0.6631975599219198" /><rect height="0.37225446666156153" width="1" x="78" y="0.6277455333384385" /><rect height="0.3798520175290308" width="1" x="79" y="0.6201479824709693" /><rect height="0.3714260807666615" width="1" x="80" y="0.6285739192333385" /><rect height="0.42384894094234676" width="1" x="81" y="0.5761510590576533" /><rect height="0.3858236202679058" width="1" x="82" y="0.6141763797320943" /><rect height="0.3218072105212715" width="1" x="83" y="0.6781927894787285" /><rect height="0.41017334938090194" width="1" x="84" y="0.5898266506190981" /><rect height="0.3375643624535057" width="1" x="85" y="0.6624356375464944" /><rect height="0.36743393502083244" width="1" x="86" y="0.6325660649791676" /><rect height="0.3617204804445543" width="1" x="87" y="0.6382795195554457" /><rect height="0.33249483342460023" width="1" x="88" y="0.6675051665753997" /><rect height="0.5505024015966657" width="1" x="89" y="0.44949759840333425" /><rect height="0.6122436398505631" width="1" x="90" y="0.38775636014943693" /><rect height="0.0346828799124608" width="1" x="91" y="0.9653171200875392" /><rect height="0" width="1" x="92" y="1" /><rect height="0" width="1" x="93" y="1" /><rect height="0" width="1" x="94" y="1" /><rect height="0" width="1" x="95" y="1" /><rect height="0" width="1" x="96" y="1" /><rect height="0" width="1" x="97" y="1" /><rect height="0" width="1" x="98" y="1" /><rect height="0" width="1" x="99" y="1" /></svg>
