<svg id="5352a4a1-6a47-445d-874d-6e08f811c4f4" xmlns="http://www.w3.org/2000/svg" preserveAspectRatio="none" viewBox="0 0 100 1" fill="currentColor"><rect height="0.49187177247169217" width="1" x="0" y="0.5081282275283079" /><rect height="0.4694093559953183" width="1" x="1" y="0.5305906440046817" /><rect height="0.4908453720912191" width="1" x="2" y="0.5091546279087809" /><rect height="0.5513925382749862" width="1" x="3" y="0.44860746172501376" /><rect height="0.5669379673697098" width="1" x="4" y="0.4330620326302902" /><rect height="0.572342169438701" width="1" x="5" y="0.427657830561299" /><rect height="0.5707342658522024" width="1" x="6" y="0.42926573414779756" /><rect height="0.6524739183669339" width="1" x="7" y="0.3475260816330661" /><rect height="0.5676763145379174" width="1" x="8" y="0.43232368546208255" /><rect height="0.550572227487832" width="1" x="9" y="0.44942777251216803" /><rect height="0.5563063078256705" width="1" x="10" y="0.4436936921743295" /><rect height="0.5953483116506394" width="1" x="11" y="0.4046516883493606" /><rect height="0.6699736569603303" width="1" x="12" y="0.3300263430396697" /><rect height="0.5767985617577317" width="1" x="13" y="0.4232014382422683" /><rect height="0.5554633980160082" width="1" x="14" y="0.4445366019839918" /><rect height="0.5149096207749103" width="1" x="15" y="0.4850903792250897" /><rect height="0.5246133712007501" width="1" x="16" y="0.47538662879924987" /><rect height="0.4916909802916286" width="1" x="17" y="0.5083090197083714" /><rect height="0.5430376459239121" width="1" x="18" y="0.4569623540760879" /><rect height="0.5220394437267475" width="1" x="19" y="0.4779605562732525" /><rect height="0.5035925699810775" width="1" x="20" y="0.4964074300189225" /><rect height="0.46127404519129905" width="1" x="21" y="0.5387259548087009" /><rect height="0.6242389694845736" width="1" x="22" y="0.3757610305154264" /><rect height="0.5140110566560867" width="1" x="23" y="0.4859889433439133" /><rect height="0.4998728383360373" width="1" x="24" y="0.5001271616639626" /><rect height="0.5208767746135398" width="1" x="25" y="0.47912322538646024" /><rect height="0.49714915017556405" width="1" x="26" y="0.502850849824436" /><rect height="0.4799168895649857" width="1" x="27" y="0.5200831104350143" /><rect height="0.49981988241762315" width="1" x="28" y="0.5001801175823768" /><rect height="0.644974415882728" width="1" x="29" y="0.35502558411727203" /><rect height="0.5589827741480674" width="1" x="30" y="0.4410172258519326" /><rect height="0.5403196918437767" width="1" x="31" y="0.4596803081562233" /><rect height="0.488153727320869" width="1" x="32" y="0.5118462726791311" /><rect height="0.46226570379090165" width="1" x="33" y="0.5377342962090983" /><rect height="0.4975778570055283" width="1" x="34" y="0.5024221429944717" /><rect height="0.54765931467621" width="1" x="35" y="0.45234068532379" /><rect height="0.5883061863980868" width="1" x="36" y="0.41169381360191315" /><rect height="0.6737210471105295" width="1" x="37" y="0.3262789528894705" /><rect height="0.6140343302762814" width="1" x="38" y="0.3859656697237186" /><rect height="0.5929018831394427" width="1" x="39" y="0.4070981168605573" /><rect height="0.5416354946318889" width="1" x="40" y="0.45836450536811113" /><rect height="0.5977033321752739" width="1" x="41" y="0.40229666782472606" /><rect height="0.6215520468980311" width="1" x="42" y="0.3784479531019689" /><rect height="0.6141307977454945" width="1" x="43" y="0.3858692022545055" /><rect height="0.4997331966148688" width="1" x="44" y="0.5002668033851312" /><rect height="0.5423232469735861" width="1" x="45" y="0.45767675302641386" /><rect height="0.5488098410310551" width="1" x="46" y="0.4511901589689449" /><rect height="0.4909145183541166" width="1" x="47" y="0.5090854816458834" /><rect height="0.6075123198402553" width="1" x="48" y="0.39248768015974467" /><rect height="0.5341501586991058" width="1" x="49" y="0.46584984130089424" /><rect height="0.5476849493883085" width="1" x="50" y="0.4523150506116915" /><rect height="0.49843594526314366" width="1" x="51" y="0.5015640547368563" /><rect height="0.7661881520408266" width="1" x="52" y="0.23381184795917342" /><rect height="0.48840568955689045" width="1" x="53" y="0.5115943104431095" /><rect height="0.5155403696120726" width="1" x="54" y="0.4844596303879274" /><rect height="0.5008810245789667" width="1" x="55" y="0.49911897542103334" /><rect height="0.5363520455488358" width="1" x="56" y="0.46364795445116425" /><rect height="0.5219527579239931" width="1" x="57" y="0.4780472420760069" /><rect height="0.5356912771146107" width="1" x="58" y="0.46430872288538927" /><rect height="0.5738367406138164" width="1" x="59" y="0.4261632593861836" /><rect height="0.5382544110256245" width="1" x="60" y="0.46174558897437545" /><rect height="0.4875192681964293" width="1" x="61" y="0.5124807318035707" /><rect height="0.48496220566459675" width="1" x="62" y="0.5150377943354032" /><rect height="0.4948228000526186" width="1" x="63" y="0.5051771999473814" /><rect height="0.5970280598907827" width="1" x="64" y="0.40297194010921733" /><rect height="0.543517959476917" width="1" x="65" y="0.45648204052308305" /><rect height="0.5609984720362394" width="1" x="66" y="0.4390015279637606" /><rect height="0.6575229447538224" width="1" x="67" y="0.34247705524617755" /><rect height="0.5000499202288236" width="1" x="68" y="0.49995007977117645" /><rect height="0.8520637629733567" width="1" x="69" y="0.14793623702664327" /><rect height="0.5014625277849922" width="1" x="70" y="0.49853747221500777" /><rect height="0.5883911857066242" width="1" x="71" y="0.4116088142933758" /><rect height="0.6258360795080834" width="1" x="72" y="0.3741639204919166" /><rect height="0.5582022646244346" width="1" x="73" y="0.44179773537556544" /><rect height="0.5041588947391499" width="1" x="74" y="0.4958411052608501" /><rect height="0.5566436066690728" width="1" x="75" y="0.44335639333092725" /><rect height="0.5127519200736661" width="1" x="76" y="0.4872480799263339" /><rect height="0.5166281583820449" width="1" x="77" y="0.4833718416179551" /><rect height="0.8936999322029324" width="1" x="78" y="0.10630006779706758" /><rect height="0.6529511962303481" width="1" x="79" y="0.34704880376965186" /><rect height="0.49868655830379155" width="1" x="80" y="0.5013134416962084" /><rect height="0.5389971430787964" width="1" x="81" y="0.4610028569212036" /><rect height="0.5227298944591919" width="1" x="82" y="0.47727010554080807" /><rect height="1" width="1" x="83" y="0" /><rect height="0.5416017647475486" width="1" x="84" y="0.4583982352524514" /><rect height="0.49802916285800053" width="1" x="85" y="0.5019708371419995" /><rect height="0.5014756824398849" width="1" x="86" y="0.49852431756011506" /><rect height="0.6485018871870288" width="1" x="87" y="0.35149811281297116" /><rect height="0.6017866719735018" width="1" x="88" y="0.3982133280264982" /><rect height="0.5338010543961845" width="1" x="89" y="0.4661989456038155" /><rect height="0.5578551841145737" width="1" x="90" y="0.4421448158854263" /><rect height="0.5057684848198655" width="1" x="91" y="0.49423151518013453" /><rect height="0.12534294859902925" width="1" x="92" y="0.8746570514009707" /><rect height="0" width="1" x="93" y="1" /><rect height="0" width="1" x="94" y="1" /><rect height="0" width="1" x="95" y="1" /><rect height="0" width="1" x="96" y="1" /><rect height="0" width="1" x="97" y="1" /><rect height="0" width="1" x="98" y="1" /><rect height="0" width="1" x="99" y="1" /></svg>
