<svg id="56570f22-2db4-458c-981d-558021d2f648" xmlns="http://www.w3.org/2000/svg" preserveAspectRatio="none" viewBox="0 0 100 1" fill="currentColor"><rect height="0.05535453300648208" width="1" x="0" y="0.9446454669935179" /><rect height="0.15369390158209947" width="1" x="1" y="0.8463060984179005" /><rect height="0.18262151565776683" width="1" x="2" y="0.8173784843422331" /><rect height="0.16793055948088545" width="1" x="3" y="0.8320694405191146" /><rect height="0.2024079178482607" width="1" x="4" y="0.7975920821517393" /><rect height="0.21094826889526985" width="1" x="5" y="0.7890517311047301" /><rect height="0.27081930297403284" width="1" x="6" y="0.7291806970259671" /><rect height="0.28763427481895415" width="1" x="7" y="0.7123657251810458" /><rect height="0.32770612243407077" width="1" x="8" y="0.6722938775659293" /><rect height="0.4236968373991126" width="1" x="9" y="0.5763031626008874" /><rect height="0.739250138458244" width="1" x="10" y="0.26074986154175595" /><rect height="0.632236183967517" width="1" x="11" y="0.367763816032483" /><rect height="0.6363865069302174" width="1" x="12" y="0.36361349306978263" /><rect height="0.7397030669927873" width="1" x="13" y="0.2602969330072127" /><rect height="0.6514034620724859" width="1" x="14" y="0.3485965379275141" /><rect height="0.6095025502342033" width="1" x="15" y="0.3904974497657967" /><rect height="0.5847891804869986" width="1" x="16" y="0.41521081951300143" /><rect height="0.6142523642915161" width="1" x="17" y="0.3857476357084839" /><rect height="0.7641735355500958" width="1" x="18" y="0.23582646444990418" /><rect height="0.6598620850875562" width="1" x="19" y="0.34013791491244383" /><rect height="0.6413760261091385" width="1" x="20" y="0.35862397389086154" /><rect height="0.6223589632137105" width="1" x="21" y="0.37764103678628946" /><rect height="0.7058914039917067" width="1" x="22" y="0.2941085960082933" /><rect height="0.7140477702629587" width="1" x="23" y="0.28595222973704126" /><rect height="0.6391602376231114" width="1" x="24" y="0.36083976237688864" /><rect height="0.7234369057310527" width="1" x="25" y="0.2765630942689473" /><rect height="0.6291866782394776" width="1" x="26" y="0.3708133217605224" /><rect height="0.8349007004411944" width="1" x="27" y="0.16509929955880565" /><rect height="0.8723257469325734" width="1" x="28" y="0.12767425306742664" /><rect height="0.592154748147536" width="1" x="29" y="0.407845251852464" /><rect height="0.6439164438170004" width="1" x="30" y="0.3560835561829996" /><rect height="0.6405760958747433" width="1" x="31" y="0.3594239041252567" /><rect height="0.6296542173719095" width="1" x="32" y="0.3703457826280905" /><rect height="0.724512154419409" width="1" x="33" y="0.27548784558059103" /><rect height="0.755320426392036" width="1" x="34" y="0.244679573607964" /><rect height="0.8715787801155241" width="1" x="35" y="0.12842121988447586" /><rect height="0.8619713988414709" width="1" x="36" y="0.1380286011585291" /><rect height="0.7201636752228459" width="1" x="37" y="0.27983632477715414" /><rect height="0.6853283572072024" width="1" x="38" y="0.3146716427927976" /><rect height="0.6618194486234306" width="1" x="39" y="0.33818055137656944" /><rect height="0.6801657937595397" width="1" x="40" y="0.31983420624046033" /><rect height="0.661094397703214" width="1" x="41" y="0.338905602296786" /><rect height="0.6060978243449999" width="1" x="42" y="0.3939021756550001" /><rect height="0.7692867882298849" width="1" x="43" y="0.23071321177011506" /><rect height="0.8494391585026145" width="1" x="44" y="0.15056084149738547" /><rect height="0.8402111961924781" width="1" x="45" y="0.15978880380752192" /><rect height="0.770500381016998" width="1" x="46" y="0.22949961898300197" /><rect height="0.8279072464456295" width="1" x="47" y="0.17209275355437048" /><rect height="0.8439323328422041" width="1" x="48" y="0.15606766715779585" /><rect height="0.8590903715703333" width="1" x="49" y="0.1409096284296667" /><rect height="0.8366859328706948" width="1" x="50" y="0.16331406712930518" /><rect height="0.8659477643730615" width="1" x="51" y="0.13405223562693847" /><rect height="0.8213251720968627" width="1" x="52" y="0.17867482790313727" /><rect height="0.8907661477925897" width="1" x="53" y="0.10923385220741033" /><rect height="0.8418758911893985" width="1" x="54" y="0.15812410881060146" /><rect height="0.8554436576536019" width="1" x="55" y="0.14455634234639814" /><rect height="0.9075724445950147" width="1" x="56" y="0.09242755540498526" /><rect height="0.8506112024019822" width="1" x="57" y="0.14938879759801782" /><rect height="0.8931015605488287" width="1" x="58" y="0.10689843945117128" /><rect height="0.8131135595023447" width="1" x="59" y="0.18688644049765535" /><rect height="0.9183116906242423" width="1" x="60" y="0.08168830937575766" /><rect height="0.8397893151784478" width="1" x="61" y="0.1602106848215522" /><rect height="0.8167114192323865" width="1" x="62" y="0.18328858076761345" /><rect height="0.8537725705201052" width="1" x="63" y="0.14622742947989475" /><rect height="0.9355088209201845" width="1" x="64" y="0.0644911790798155" /><rect height="0.9232770110004104" width="1" x="65" y="0.07672298899958963" /><rect height="0.8432629848264375" width="1" x="66" y="0.15673701517356253" /><rect height="0.7316188405486096" width="1" x="67" y="0.2683811594513904" /><rect height="0.8194262509525424" width="1" x="68" y="0.1805737490474576" /><rect height="0.830137645529545" width="1" x="69" y="0.16986235447045495" /><rect height="0.8207065045925218" width="1" x="70" y="0.1792934954074782" /><rect height="0.8970044165097929" width="1" x="71" y="0.1029955834902071" /><rect height="0.9627000567530412" width="1" x="72" y="0.037299943246958844" /><rect height="0.9606011530501221" width="1" x="73" y="0.03939884694987794" /><rect height="0.8848000014610597" width="1" x="74" y="0.11519999853894025" /><rect height="0.8426274238182879" width="1" x="75" y="0.15737257618171208" /><rect height="0.7086605688727604" width="1" x="76" y="0.2913394311272396" /><rect height="0.8195207632576337" width="1" x="77" y="0.18047923674236632" /><rect height="0.8386277726463125" width="1" x="78" y="0.1613722273536875" /><rect height="0.8070287020629707" width="1" x="79" y="0.19297129793702927" /><rect height="0.7843430093539787" width="1" x="80" y="0.21565699064602128" /><rect height="0.9552404333685965" width="1" x="81" y="0.04475956663140346" /><rect height="1" width="1" x="82" y="0" /><rect height="0.926840170560467" width="1" x="83" y="0.07315982943953303" /><rect height="0.8903424404538234" width="1" x="84" y="0.10965755954617662" /><rect height="0.8758167666655556" width="1" x="85" y="0.12418323333444437" /><rect height="0.9239066364531677" width="1" x="86" y="0.07609336354683227" /><rect height="0.8503372536915729" width="1" x="87" y="0.14966274630842713" /><rect height="0.9030938397610071" width="1" x="88" y="0.0969061602389929" /><rect height="0.8499263306259591" width="1" x="89" y="0.15007366937404087" /><rect height="0.9040234390516625" width="1" x="90" y="0.09597656094833751" /><rect height="0.9510914801494482" width="1" x="91" y="0.04890851985055178" /><rect height="0.5957411933479774" width="1" x="92" y="0.40425880665202263" /><rect height="0.11403389019496472" width="1" x="93" y="0.8859661098050353" /><rect height="0.03980200813536353" width="1" x="94" y="0.9601979918646365" /><rect height="0.015400483336841396" width="1" x="95" y="0.9845995166631586" /><rect height="0.0036471704979154783" width="1" x="96" y="0.9963528295020845" /><rect height="0.00007305298944247328" width="1" x="97" y="0.9999269470105575" /><rect height="0" width="1" x="98" y="1" /><rect height="0" width="1" x="99" y="1" /></svg>
