<svg id="5a93be41-caab-4eec-9ac1-8b57c24ccbe2" xmlns="http://www.w3.org/2000/svg" preserveAspectRatio="none" viewBox="0 0 100 1" fill="currentColor"><rect height="0.8948843353582582" width="1" x="0" y="0.10511566464174182" /><rect height="0.5272720794695089" width="1" x="1" y="0.47272792053049106" /><rect height="0.5542995509353345" width="1" x="2" y="0.44570044906466555" /><rect height="0.4293192497591604" width="1" x="3" y="0.5706807502408395" /><rect height="0.41511828201589884" width="1" x="4" y="0.5848817179841012" /><rect height="0.4730869530064859" width="1" x="5" y="0.5269130469935142" /><rect height="0.9502246693680891" width="1" x="6" y="0.049775330631910863" /><rect height="0.887217210536918" width="1" x="7" y="0.11278278946308196" /><rect height="0.6491896417760322" width="1" x="8" y="0.3508103582239678" /><rect height="0.5403315431955809" width="1" x="9" y="0.45966845680441915" /><rect height="0.42083676492554184" width="1" x="10" y="0.5791632350744582" /><rect height="0.36699559705593365" width="1" x="11" y="0.6330044029440663" /><rect height="0.7883777624602768" width="1" x="12" y="0.2116222375397232" /><rect height="0.8178992763166009" width="1" x="13" y="0.18210072368339913" /><rect height="0.7112227796513547" width="1" x="14" y="0.2887772203486453" /><rect height="0.7517907087328483" width="1" x="15" y="0.24820929126715174" /><rect height="0.5503789711115892" width="1" x="16" y="0.4496210288884108" /><rect height="0.5650664141562942" width="1" x="17" y="0.4349335858437058" /><rect height="0.5878074215575705" width="1" x="18" y="0.4121925784424295" /><rect height="0.6731338190777798" width="1" x="19" y="0.3268661809222202" /><rect height="0.3952111645396505" width="1" x="20" y="0.6047888354603494" /><rect height="0.4169833323969254" width="1" x="21" y="0.5830166676030746" /><rect height="0.2923058792253121" width="1" x="22" y="0.7076941207746879" /><rect height="0.37971247254155255" width="1" x="23" y="0.6202875274584474" /><rect height="0.4850432825982988" width="1" x="24" y="0.5149567174017011" /><rect height="0.9715761388660876" width="1" x="25" y="0.028423861133912376" /><rect height="0.9355454484411551" width="1" x="26" y="0.06445455155884494" /><rect height="0.6748590934567016" width="1" x="27" y="0.3251409065432984" /><rect height="0.7282261192015227" width="1" x="28" y="0.2717738807984773" /><rect height="0.8078271820472799" width="1" x="29" y="0.19217281795272012" /><rect height="1" width="1" x="30" y="0" /><rect height="0.7683651278059689" width="1" x="31" y="0.23163487219403112" /><rect height="0.6705342595092217" width="1" x="32" y="0.32946574049077826" /><rect height="0.4414071332353074" width="1" x="33" y="0.5585928667646927" /><rect height="0.2928896495870441" width="1" x="34" y="0.7071103504129559" /><rect height="0.3738131030409502" width="1" x="35" y="0.6261868969590498" /><rect height="0.49977594729074365" width="1" x="36" y="0.5002240527092563" /><rect height="0.82601176585053" width="1" x="37" y="0.17398823414946996" /><rect height="0.5098096716771339" width="1" x="38" y="0.49019032832286613" /><rect height="0.49980335434997986" width="1" x="39" y="0.5001966456500202" /><rect height="0.9361812922154359" width="1" x="40" y="0.06381870778456411" /><rect height="0.6291838588865334" width="1" x="41" y="0.3708161411134666" /><rect height="0.6105744656651213" width="1" x="42" y="0.3894255343348787" /><rect height="0.8098265270185642" width="1" x="43" y="0.19017347298143583" /><rect height="0.7009889837325399" width="1" x="44" y="0.2990110162674601" /><rect height="0.6008956626958405" width="1" x="45" y="0.3991043373041595" /><rect height="0.8564185277201849" width="1" x="46" y="0.1435814722798151" /><rect height="0.5011367077818233" width="1" x="47" y="0.4988632922181767" /><rect height="0.7463065561796751" width="1" x="48" y="0.2536934438203249" /><rect height="0.49493449027666053" width="1" x="49" y="0.5050655097233394" /><rect height="0.9995738202288763" width="1" x="50" y="0.00042617977112369143" /><rect height="0.6040091046250783" width="1" x="51" y="0.3959908953749217" /><rect height="0.7688776398136867" width="1" x="52" y="0.23112236018631327" /><rect height="0.4744847130275344" width="1" x="53" y="0.5255152869724655" /><rect height="0.4441286542174668" width="1" x="54" y="0.5558713457825333" /><rect height="0.3926869743839921" width="1" x="55" y="0.607313025616008" /><rect height="0.8185488236204999" width="1" x="56" y="0.18145117637950015" /><rect height="0.9380764903616223" width="1" x="57" y="0.06192350963837767" /><rect height="0.7290264053312211" width="1" x="58" y="0.2709735946687789" /><rect height="0.8851329036820014" width="1" x="59" y="0.11486709631799863" /><rect height="0.5792769743702885" width="1" x="60" y="0.42072302562971153" /><rect height="0.52594968886136" width="1" x="61" y="0.47405031113864005" /><rect height="0.7007080613753685" width="1" x="62" y="0.29929193862463155" /><rect height="0.5843075400931018" width="1" x="63" y="0.4156924599068982" /><rect height="0.7653791287021797" width="1" x="64" y="0.23462087129782028" /><rect height="0.5563125994362368" width="1" x="65" y="0.4436874005637632" /><rect height="0.666413608153052" width="1" x="66" y="0.33358639184694805" /><rect height="0.5363616306652104" width="1" x="67" y="0.46363836933478964" /><rect height="0.6608979374817571" width="1" x="68" y="0.33910206251824293" /><rect height="0.7889820881164361" width="1" x="69" y="0.2110179118835639" /><rect height="0.6311941666815121" width="1" x="70" y="0.36880583331848793" /><rect height="0.927276738669579" width="1" x="71" y="0.07272326133042095" /><rect height="0.33980231288172896" width="1" x="72" y="0.6601976871182711" /><rect height="0.46500735194364007" width="1" x="73" y="0.5349926480563599" /><rect height="0.45028290936896614" width="1" x="74" y="0.5497170906310338" /><rect height="0.9014866959282702" width="1" x="75" y="0.09851330407172976" /><rect height="0.5901027627686063" width="1" x="76" y="0.4098972372313937" /><rect height="0.7752717067335033" width="1" x="77" y="0.22472829326649668" /><rect height="0.4608661452930431" width="1" x="78" y="0.5391338547069568" /><rect height="0.45427611789968736" width="1" x="79" y="0.5457238821003126" /><rect height="0.38683693759001503" width="1" x="80" y="0.613163062409985" /><rect height="0.8669387274080184" width="1" x="81" y="0.13306127259198164" /><rect height="0.9272986643169681" width="1" x="82" y="0.07270133568303194" /><rect height="0.7466738107734409" width="1" x="83" y="0.25332618922655914" /><rect height="0.877568555332797" width="1" x="84" y="0.12243144466720302" /><rect height="0.576015534321175" width="1" x="85" y="0.423984465678825" /><rect height="0.5513464403026287" width="1" x="86" y="0.4486535596973713" /><rect height="0.8089385382993096" width="1" x="87" y="0.19106146170069038" /><rect height="0.5806473273321009" width="1" x="88" y="0.4193526726678991" /><rect height="0.7174866630397991" width="1" x="89" y="0.28251333696020087" /><rect height="0.5838265462035056" width="1" x="90" y="0.4161734537964944" /><rect height="0.66346323822627" width="1" x="91" y="0.33653676177373004" /><rect height="0.5131560736098796" width="1" x="92" y="0.4868439263901204" /><rect height="0.42488615792769746" width="1" x="93" y="0.5751138420723025" /><rect height="0.5663559162933597" width="1" x="94" y="0.4336440837066403" /><rect height="0.5805692172132776" width="1" x="95" y="0.4194307827867224" /><rect height="0.9051112795122639" width="1" x="96" y="0.09488872048773611" /><rect height="0.2975913305990224" width="1" x="97" y="0.7024086694009777" /><rect height="0.19896154652553857" width="1" x="98" y="0.8010384534744615" /><rect height="0.017667701287992246" width="1" x="99" y="0.9823322987120078" /></svg>
