<svg id="5d0cd8a0-805a-4fb8-940a-53d2dee9c87e" xmlns="http://www.w3.org/2000/svg" preserveAspectRatio="none" viewBox="0 0 100 1" fill="currentColor"><rect height="0.8911343458566481" width="1" x="0" y="0.10886565414335192" /><rect height="0.9607626965094592" width="1" x="1" y="0.039237303490540776" /><rect height="0.8021401545430323" width="1" x="2" y="0.19785984545696766" /><rect height="0.8038318145483614" width="1" x="3" y="0.1961681854516386" /><rect height="0.7495366906474821" width="1" x="4" y="0.2504633093525179" /><rect height="0.7258172128963496" width="1" x="5" y="0.2741827871036504" /><rect height="0.8445680788702372" width="1" x="6" y="0.15543192112976278" /><rect height="0.8151550226485479" width="1" x="7" y="0.1848449773514521" /><rect height="0.6730035704769518" width="1" x="8" y="0.3269964295230482" /><rect height="0.7970869171329603" width="1" x="9" y="0.20291308286703968" /><rect height="0.6966062350119905" width="1" x="10" y="0.3033937649880095" /><rect height="0.8303198507860379" width="1" x="11" y="0.16968014921396213" /><rect height="0.906606128430589" width="1" x="12" y="0.09339387156941104" /><rect height="0.9113212896349588" width="1" x="13" y="0.08867871036504116" /><rect height="0.9779977617905676" width="1" x="14" y="0.022002238209432368" /><rect height="0.7306197708499867" width="1" x="15" y="0.26938022915001325" /><rect height="0.8147883826272316" width="1" x="16" y="0.18521161737276837" /><rect height="0.9160407140953905" width="1" x="17" y="0.08395928590460955" /><rect height="0.8006313882227551" width="1" x="18" y="0.19936861177724485" /><rect height="0.7849144684252598" width="1" x="19" y="0.2150855315747402" /><rect height="0.8246505728750334" width="1" x="20" y="0.1753494271249666" /><rect height="0.7457308819610978" width="1" x="21" y="0.2542691180389022" /><rect height="0.8155873168132162" width="1" x="22" y="0.18441268318678383" /><rect height="0.830920969890754" width="1" x="23" y="0.16907903010924596" /><rect height="0.736705995203837" width="1" x="24" y="0.26329400479616305" /><rect height="0.8002715694111379" width="1" x="25" y="0.19972843058886214" /><rect height="0.7777010391686651" width="1" x="26" y="0.22229896083133494" /><rect height="0.7640517985611511" width="1" x="27" y="0.23594820143884887" /><rect height="0.6196271782573941" width="1" x="28" y="0.3803728217426059" /><rect height="0.6922044231281642" width="1" x="29" y="0.3077955768718358" /><rect height="0.9370287236877166" width="1" x="30" y="0.06297127631228339" /><rect height="0.8542094324540369" width="1" x="31" y="0.1457905675459631" /><rect height="0.7970233946176394" width="1" x="32" y="0.20297660538236062" /><rect height="0.5235525712763123" width="1" x="33" y="0.4764474287236877" /><rect height="0.6206648547828404" width="1" x="34" y="0.3793351452171596" /><rect height="0.7819630162536638" width="1" x="35" y="0.21803698374633618" /><rect height="0.8285237410071943" width="1" x="36" y="0.17147625899280572" /><rect height="0.9371118571809219" width="1" x="37" y="0.06288814281907806" /><rect height="0.8632859046096457" width="1" x="38" y="0.13671409539035428" /><rect height="0.7267052491340261" width="1" x="39" y="0.2732947508659739" /><rect height="0.7328630961897149" width="1" x="40" y="0.2671369038102851" /><rect height="0.9091410604849454" width="1" x="41" y="0.09085893951505464" /><rect height="0.8078021849187317" width="1" x="42" y="0.19219781508126832" /><rect height="0.8923903010924594" width="1" x="43" y="0.10760969890754057" /><rect height="0.8241492139621637" width="1" x="44" y="0.17585078603783633" /><rect height="0.6910034638955502" width="1" x="45" y="0.30899653610444977" /><rect height="0.7817131894484413" width="1" x="46" y="0.21828681055155874" /><rect height="0.8848767386091129" width="1" x="47" y="0.11512326139088713" /><rect height="0.7927230482280843" width="1" x="48" y="0.20727695177191574" /><rect height="0.9094023980815349" width="1" x="49" y="0.09059760191846511" /><rect height="0.8249933386624034" width="1" x="50" y="0.17500666133759657" /><rect height="0.7279744204636291" width="1" x="51" y="0.27202557953637085" /><rect height="0.728743511857181" width="1" x="52" y="0.271256488142819" /><rect height="0.8595922195576872" width="1" x="53" y="0.14040778044231284" /><rect height="0.7649952571276313" width="1" x="54" y="0.23500474287236872" /><rect height="0.8058167865707435" width="1" x="55" y="0.19418321342925648" /><rect height="0.7524898481215029" width="1" x="56" y="0.24751015187849712" /><rect height="0.633379163335998" width="1" x="57" y="0.366620836664002" /><rect height="0.6384059685584866" width="1" x="58" y="0.36159403144151336" /><rect height="0.8358011191047163" width="1" x="59" y="0.16419888089528367" /><rect height="0.6410504662936318" width="1" x="60" y="0.3589495337063682" /><rect height="0.7325625366373567" width="1" x="61" y="0.2674374633626433" /><rect height="0.8973552891020518" width="1" x="62" y="0.10264471089794824" /><rect height="0.6025528377298162" width="1" x="63" y="0.39744716227018384" /><rect height="0.8002285105249135" width="1" x="64" y="0.1997714894750865" /><rect height="0.854266133759659" width="1" x="65" y="0.14573386624034101" /><rect height="0.7230205169197976" width="1" x="66" y="0.27697948308020237" /><rect height="0.5807343458566481" width="1" x="67" y="0.41926565414335193" /><rect height="0.653278337330136" width="1" x="68" y="0.34672166266986404" /><rect height="0.6258246735944578" width="1" x="69" y="0.3741753264055422" /><rect height="0.6454211564082069" width="1" x="70" y="0.35457884359179315" /><rect height="0.8218543032240875" width="1" x="71" y="0.17814569677591252" /><rect height="0.7472277111644019" width="1" x="72" y="0.2527722888355981" /><rect height="0.8858803090860646" width="1" x="73" y="0.11411969091393537" /><rect height="0.8722233946176393" width="1" x="74" y="0.1277766053823607" /><rect height="0.7661348254729551" width="1" x="75" y="0.23386517452704492" /><rect height="0.655739515054623" width="1" x="76" y="0.344260484945377" /><rect height="0.7454622968292034" width="1" x="77" y="0.2545377031707966" /><rect height="1" width="1" x="78" y="0" /><rect height="0.9517088196109779" width="1" x="79" y="0.04829118038902214" /><rect height="0.8450515321076474" width="1" x="80" y="0.15494846789235261" /><rect height="0.7009692512656541" width="1" x="81" y="0.2990307487343459" /><rect height="0.7739753796962431" width="1" x="82" y="0.22602462030375692" /><rect height="0.745119104716227" width="1" x="83" y="0.254880895283773" /><rect height="0.6433854516386891" width="1" x="84" y="0.3566145483613109" /><rect height="0.6658545163868905" width="1" x="85" y="0.3341454836131095" /><rect height="0.7640816413535838" width="1" x="86" y="0.2359183586464162" /><rect height="0.7182929922728485" width="1" x="87" y="0.2817070077271515" /><rect height="0.6899031175059952" width="1" x="88" y="0.3100968824940048" /><rect height="0.7880829203304024" width="1" x="89" y="0.2119170796695976" /><rect height="0.7739796429523048" width="1" x="90" y="0.2260203570476952" /><rect height="0.7482372501998402" width="1" x="91" y="0.2517627498001598" /><rect height="0.6010649613642419" width="1" x="92" y="0.3989350386357581" /><rect height="0.6241534772182254" width="1" x="93" y="0.37584652278177455" /><rect height="0.6796414601652012" width="1" x="94" y="0.3203585398347988" /><rect height="0.9715112176925127" width="1" x="95" y="0.028488782307487304" /><rect height="0.4426918198774314" width="1" x="96" y="0.5573081801225686" /><rect height="0.0008850519584332535" width="1" x="97" y="0.9991149480415668" /><rect height="0" width="1" x="98" y="1" /><rect height="0" width="1" x="99" y="1" /></svg>
