<svg id="8bb8891c-40c1-4536-8eee-2ecdac298931" xmlns="http://www.w3.org/2000/svg" preserveAspectRatio="none" viewBox="0 0 100 1" fill="currentColor"><rect height="0.1437669579123645" width="1" x="0" y="0.8562330420876355" /><rect height="0.13016477364077042" width="1" x="1" y="0.8698352263592296" /><rect height="0.17949328655190416" width="1" x="2" y="0.8205067134480959" /><rect height="0.21628301057277372" width="1" x="3" y="0.7837169894272262" /><rect height="0.4071515260164788" width="1" x="4" y="0.5928484739835211" /><rect height="0.41059269282044497" width="1" x="5" y="0.589407307179555" /><rect height="0.4245383392877214" width="1" x="6" y="0.5754616607122787" /><rect height="0.43843219609500267" width="1" x="7" y="0.5615678039049974" /><rect height="0.38060078851180135" width="1" x="8" y="0.6193992114881987" /><rect height="0.706268967607275" width="1" x="9" y="0.293731032392725" /><rect height="0.707058617642916" width="1" x="10" y="0.292941382357084" /><rect height="0.5580145210238986" width="1" x="11" y="0.4419854789761014" /><rect height="0.6891485011588648" width="1" x="12" y="0.31085149884113517" /><rect height="0.8699843350506443" width="1" x="13" y="0.13001566494935568" /><rect height="0.6798795748125825" width="1" x="14" y="0.32012042518741746" /><rect height="0.6956327373254055" width="1" x="15" y="0.30436726267459446" /><rect height="0.7934056396663266" width="1" x="16" y="0.2065943603336734" /><rect height="0.6333135565126208" width="1" x="17" y="0.3666864434873792" /><rect height="0.7104906785725973" width="1" x="18" y="0.2895093214274027" /><rect height="0.6637348597055103" width="1" x="19" y="0.33626514029448973" /><rect height="0.7341130238189751" width="1" x="20" y="0.26588697618102486" /><rect height="0.7741563905452569" width="1" x="21" y="0.22584360945474313" /><rect height="0.8660503128010095" width="1" x="22" y="0.13394968719899047" /><rect height="0.7848796957499754" width="1" x="23" y="0.2151203042500246" /><rect height="0.7884221654053608" width="1" x="24" y="0.2115778345946392" /><rect height="0.8197264538453111" width="1" x="25" y="0.18027354615468894" /><rect height="0.7742357823866781" width="1" x="26" y="0.22576421761332188" /><rect height="0.8060596747780087" width="1" x="27" y="0.19394032522199134" /><rect height="0.7844090358728762" width="1" x="28" y="0.21559096412712375" /><rect height="0.724150628234186" width="1" x="29" y="0.27584937176581403" /><rect height="0.6812522853610267" width="1" x="30" y="0.31874771463897333" /><rect height="0.6994700096607634" width="1" x="31" y="0.30052999033923655" /><rect height="0.7003501493221103" width="1" x="32" y="0.29964985067788974" /><rect height="0.699674891832173" width="1" x="33" y="0.300325108167827" /><rect height="0.5552047896898739" width="1" x="34" y="0.44479521031012614" /><rect height="0.7906792839937227" width="1" x="35" y="0.20932071600627733" /><rect height="0.6156868603656861" width="1" x="36" y="0.3843131396343139" /><rect height="0.683145453536565" width="1" x="37" y="0.316854546463435" /><rect height="0.6840657159564796" width="1" x="38" y="0.3159342840435204" /><rect height="0.9168158464977242" width="1" x="39" y="0.08318415350227581" /><rect height="0.7446721387279946" width="1" x="40" y="0.25532786127200535" /><rect height="0.6554120906091402" width="1" x="41" y="0.3445879093908598" /><rect height="0.8262289017604216" width="1" x="42" y="0.17377109823957837" /><rect height="0.5327144184405336" width="1" x="43" y="0.4672855815594664" /><rect height="1" width="1" x="44" y="0" /><rect height="0.7108145062268529" width="1" x="45" y="0.28918549377314706" /><rect height="0.6973005351123935" width="1" x="46" y="0.30269946488760646" /><rect height="0.726786494281084" width="1" x="47" y="0.273213505718916" /><rect height="0.9241677017484701" width="1" x="48" y="0.07583229825152993" /><rect height="0.678064944802751" width="1" x="49" y="0.32193505519724896" /><rect height="0.7176518795805037" width="1" x="50" y="0.2823481204194963" /><rect height="0.6855479815549134" width="1" x="51" y="0.31445201844508663" /><rect height="0.6100042256947853" width="1" x="52" y="0.3899957743052147" /><rect height="0.8266315521389556" width="1" x="53" y="0.17336844786104444" /><rect height="0.7285780750466321" width="1" x="54" y="0.2714219249533679" /><rect height="0.7688362834943223" width="1" x="55" y="0.23116371650567769" /><rect height="0.7037864786303627" width="1" x="56" y="0.2962135213696373" /><rect height="0.7826686756501807" width="1" x="57" y="0.21733132434981928" /><rect height="0.7096054168569652" width="1" x="58" y="0.2903945831430348" /><rect height="0.6943055561483858" width="1" x="59" y="0.30569444385161415" /><rect height="0.6661251517052884" width="1" x="60" y="0.3338748482947116" /><rect height="0.7177375317104957" width="1" x="61" y="0.2822624682895043" /><rect height="0.8034716145711062" width="1" x="62" y="0.19652838542889384" /><rect height="0.7151161781507391" width="1" x="63" y="0.28488382184926087" /><rect height="0.721610373867279" width="1" x="64" y="0.278389626132721" /><rect height="0.7237539535856514" width="1" x="65" y="0.2762460464143486" /><rect height="0.7452085316350877" width="1" x="66" y="0.2547914683649123" /><rect height="0.6457863278143199" width="1" x="67" y="0.3542136721856801" /><rect height="0.7705268459670224" width="1" x="68" y="0.22947315403297763" /><rect height="0.6320521083655951" width="1" x="69" y="0.3679478916344049" /><rect height="0.5375254502072297" width="1" x="70" y="0.46247454979277025" /><rect height="0.4833992797822558" width="1" x="71" y="0.5166007202177443" /><rect height="0.3550092979513205" width="1" x="72" y="0.6449907020486795" /><rect height="0.25651959256903745" width="1" x="73" y="0.7434804074309626" /><rect height="0.28115411265389284" width="1" x="74" y="0.7188458873461072" /><rect height="0.1734919462810329" width="1" x="75" y="0.8265080537189671" /><rect height="0.31761061858765044" width="1" x="76" y="0.6823893814123496" /><rect height="0.26430113126260063" width="1" x="77" y="0.7356988687373993" /><rect height="0.15014875299320046" width="1" x="78" y="0.8498512470067996" /><rect height="0.2382853638721592" width="1" x="79" y="0.7617146361278408" /><rect height="0.38878583125961275" width="1" x="80" y="0.6112141687403873" /><rect height="0.2140830882572637" width="1" x="81" y="0.7859169117427363" /><rect height="0.13809399823289129" width="1" x="82" y="0.8619060017671087" /><rect height="0.24948103630540533" width="1" x="83" y="0.7505189636945947" /><rect height="0.5378760263671972" width="1" x="84" y="0.4621239736328028" /><rect height="0.28666145924481" width="1" x="85" y="0.71333854075519" /><rect height="0.1291013782594406" width="1" x="86" y="0.8708986217405594" /><rect height="0.17864188730626895" width="1" x="87" y="0.821358112693731" /><rect height="0.5088692638327478" width="1" x="88" y="0.4911307361672522" /><rect height="0.38305766721728746" width="1" x="89" y="0.6169423327827126" /><rect height="0.2095745422519681" width="1" x="90" y="0.7904254577480319" /><rect height="0.2093266917362768" width="1" x="91" y="0.7906733082637232" /><rect height="0.1832827530472666" width="1" x="92" y="0.8167172469527334" /><rect height="0.16206891154923644" width="1" x="93" y="0.8379310884507636" /><rect height="0.00558360828805295" width="1" x="94" y="0.9944163917119471" /><rect height="0" width="1" x="95" y="1" /><rect height="0" width="1" x="96" y="1" /><rect height="0" width="1" x="97" y="1" /><rect height="0" width="1" x="98" y="1" /><rect height="0" width="1" x="99" y="1" /></svg>
