<svg id="8ed91156-d15e-4a6a-87cc-87f2e8905fa3" xmlns="http://www.w3.org/2000/svg" preserveAspectRatio="none" viewBox="0 0 100 1" fill="currentColor"><rect height="0.832760585092829" width="1" x="0" y="0.16723941490717098" /><rect height="0.8577774402855947" width="1" x="1" y="0.14222255971440534" /><rect height="0.8113969062698775" width="1" x="2" y="0.18860309373012252" /><rect height="0.8487760365864119" width="1" x="3" y="0.15122396341358812" /><rect height="0.7789599535870583" width="1" x="4" y="0.22104004641294173" /><rect height="0.9609791961486917" width="1" x="5" y="0.03902080385130835" /><rect height="0.7265951112633355" width="1" x="6" y="0.27340488873666446" /><rect height="0.7703210715645114" width="1" x="7" y="0.22967892843548865" /><rect height="0.8480147728377535" width="1" x="8" y="0.1519852271622465" /><rect height="0.9154234704349434" width="1" x="9" y="0.08457652956505657" /><rect height="0.8743673345411034" width="1" x="10" y="0.12563266545889662" /><rect height="0.7572057934840144" width="1" x="11" y="0.2427942065159856" /><rect height="0.8635965327549933" width="1" x="12" y="0.13640346724500674" /><rect height="0.8691299924572614" width="1" x="13" y="0.1308700075427386" /><rect height="0.7391102110378159" width="1" x="14" y="0.26088978896218407" /><rect height="0.7296706676435583" width="1" x="15" y="0.27032933235644174" /><rect height="0.7907357124837722" width="1" x="16" y="0.20926428751622783" /><rect height="0.777963892713918" width="1" x="17" y="0.22203610728608203" /><rect height="0.7768169135266655" width="1" x="18" y="0.2231830864733345" /><rect height="0.8251867097837643" width="1" x="19" y="0.1748132902162357" /><rect height="0.9066295397023192" width="1" x="20" y="0.09337046029768081" /><rect height="0.8710464961851027" width="1" x="21" y="0.12895350381489734" /><rect height="0.8583620501760502" width="1" x="22" y="0.14163794982394984" /><rect height="0.8063343117076391" width="1" x="23" y="0.19366568829236086" /><rect height="0.7499416978723377" width="1" x="24" y="0.25005830212766234" /><rect height="0.7183073128978286" width="1" x="25" y="0.28169268710217144" /><rect height="0.7530359998957868" width="1" x="26" y="0.24696400010421315" /><rect height="0.7339055943989289" width="1" x="27" y="0.2660944056010711" /><rect height="0.8323936152974615" width="1" x="28" y="0.16760638470253852" /><rect height="0.9300701722502206" width="1" x="29" y="0.0699298277497794" /><rect height="0.8204284936318825" width="1" x="30" y="0.17957150636811747" /><rect height="0.8621810778300043" width="1" x="31" y="0.1378189221699957" /><rect height="0.7977618337433016" width="1" x="32" y="0.20223816625669844" /><rect height="0.9736032748320993" width="1" x="33" y="0.026396725167900703" /><rect height="0.9064315984187573" width="1" x="34" y="0.09356840158124269" /><rect height="0.8985463547984717" width="1" x="35" y="0.10145364520152833" /><rect height="0.922818785549206" width="1" x="36" y="0.07718121445079396" /><rect height="0.8422929035349199" width="1" x="37" y="0.15770709646508008" /><rect height="0.816805500924891" width="1" x="38" y="0.18319449907510899" /><rect height="0.8575242152406527" width="1" x="39" y="0.1424757847593473" /><rect height="0.7595798179956904" width="1" x="40" y="0.2404201820043096" /><rect height="0.7758246653267239" width="1" x="41" y="0.2241753346732761" /><rect height="0.7666027620275542" width="1" x="42" y="0.23339723797244583" /><rect height="0.8874177971772238" width="1" x="43" y="0.1125822028227762" /><rect height="1" width="1" x="44" y="0" /><rect height="0.7451119940979819" width="1" x="45" y="0.2548880059020181" /><rect height="0.6822651599829446" width="1" x="46" y="0.31773484001705543" /><rect height="0.8190994592993958" width="1" x="47" y="0.18090054070060424" /><rect height="0.7733893203211033" width="1" x="48" y="0.2266106796788967" /><rect height="0.9095090611355793" width="1" x="49" y="0.09049093886442072" /><rect height="0.872033343098013" width="1" x="50" y="0.12796665690198705" /><rect height="0.7270732840269962" width="1" x="51" y="0.2729267159730038" /><rect height="0.8847292271266614" width="1" x="52" y="0.11527077287333864" /><rect height="0.6892935053018399" width="1" x="53" y="0.31070649469816014" /><rect height="0.7111127985720268" width="1" x="54" y="0.2888872014279732" /><rect height="0.7477497285058959" width="1" x="55" y="0.25225027149410406" /><rect height="0.852790146019029" width="1" x="56" y="0.14720985398097097" /><rect height="0.9600409608190639" width="1" x="57" y="0.03995903918093613" /><rect height="0.7525390814888998" width="1" x="58" y="0.2474609185111002" /><rect height="0.7389961485646238" width="1" x="59" y="0.2610038514353762" /><rect height="0.8184830771322851" width="1" x="60" y="0.18151692286771492" /><rect height="0.7740006189239492" width="1" x="61" y="0.22599938107605078" /><rect height="0.8907557925626183" width="1" x="62" y="0.10924420743738172" /><rect height="0.7734395205182185" width="1" x="63" y="0.22656047948178148" /><rect height="0.7992446458947995" width="1" x="64" y="0.2007553541052005" /><rect height="0.8078765380164822" width="1" x="65" y="0.19212346198351782" /><rect height="0.6910679869530323" width="1" x="66" y="0.3089320130469677" /><rect height="0.8783188525887097" width="1" x="67" y="0.12168114741129032" /><rect height="0.836263478594064" width="1" x="68" y="0.16373652140593598" /><rect height="0.8074552376280343" width="1" x="69" y="0.19254476237196572" /><rect height="0.8095671408573049" width="1" x="70" y="0.19043285914269514" /><rect height="0.7513317349760024" width="1" x="71" y="0.24866826502399764" /><rect height="0.7618928397361884" width="1" x="72" y="0.23810716026381162" /><rect height="0.9350025004781727" width="1" x="73" y="0.06499749952182732" /><rect height="0.6967491877417473" width="1" x="74" y="0.3032508122582527" /><rect height="0.8557008042834112" width="1" x="75" y="0.14429919571658878" /><rect height="0.8328349322202022" width="1" x="76" y="0.16716506777979778" /><rect height="0.6840459960894681" width="1" x="77" y="0.31595400391053186" /><rect height="0.74414834094703" width="1" x="78" y="0.25585165905297" /><rect height="0.8425915629354788" width="1" x="79" y="0.15740843706452123" /><rect height="0.7547354989740732" width="1" x="80" y="0.24526450102592678" /><rect height="0.9924842679572141" width="1" x="81" y="0.007515732042785883" /><rect height="0.8248448400869544" width="1" x="82" y="0.17515515991304564" /><rect height="0.8594543810474558" width="1" x="83" y="0.14054561895254425" /><rect height="0.870949908464071" width="1" x="84" y="0.12905009153592895" /><rect height="0.7439243463966108" width="1" x="85" y="0.25607565360338924" /><rect height="0.7448730665775348" width="1" x="86" y="0.2551269334224652" /><rect height="0.7963587700062084" width="1" x="87" y="0.20364122999379164" /><rect height="0.9002483956588903" width="1" x="88" y="0.09975160434110975" /><rect height="0.9711441006189875" width="1" x="89" y="0.028855899381012518" /><rect height="0.8214261431188555" width="1" x="90" y="0.17857385688114447" /><rect height="0.8826176416201574" width="1" x="91" y="0.11738235837984257" /><rect height="0.8872764105461083" width="1" x="92" y="0.11272358945389171" /><rect height="0.7393977501415454" width="1" x="93" y="0.2606022498584546" /><rect height="0.8669793270504715" width="1" x="94" y="0.13302067294952846" /><rect height="0.8484417922359994" width="1" x="95" y="0.15155820776400064" /><rect height="0.9059261014971732" width="1" x="96" y="0.09407389850282677" /><rect height="0.1344300911419528" width="1" x="97" y="0.8655699088580472" /><rect height="0.010939194852382825" width="1" x="98" y="0.9890608051476172" /><rect height="0" width="1" x="99" y="1" /></svg>
