<svg id="93b848fe-24c8-4597-a515-463a910f6ceb" xmlns="http://www.w3.org/2000/svg" preserveAspectRatio="none" viewBox="0 0 100 1" fill="currentColor"><rect height="0" width="1" x="0" y="1" /><rect height="0.6377586151771852" width="1" x="1" y="0.36224138482281476" /><rect height="0.6709688940460511" width="1" x="2" y="0.3290311059539489" /><rect height="0.7659118858291634" width="1" x="3" y="0.23408811417083664" /><rect height="0.6749365817216552" width="1" x="4" y="0.32506341827834484" /><rect height="0.7831886390628522" width="1" x="5" y="0.2168113609371478" /><rect height="0.6889646347083773" width="1" x="6" y="0.3110353652916227" /><rect height="0.698491997950652" width="1" x="7" y="0.301508002049348" /><rect height="0.7837368474818674" width="1" x="8" y="0.21626315251813255" /><rect height="0.8015660981051328" width="1" x="9" y="0.1984339018948672" /><rect height="0.8761622135455048" width="1" x="10" y="0.12383778645449517" /><rect height="0.7368568396213542" width="1" x="11" y="0.2631431603786458" /><rect height="0.8759688199638322" width="1" x="12" y="0.12403118003616775" /><rect height="0.7785932020596417" width="1" x="13" y="0.22140679794035834" /><rect height="0.8525557195761875" width="1" x="14" y="0.14744428042381252" /><rect height="0.8294175032108795" width="1" x="15" y="0.17058249678912052" /><rect height="0.9355792722630716" width="1" x="16" y="0.06442072773692842" /><rect height="0.9200395521067034" width="1" x="17" y="0.0799604478932966" /><rect height="0.909471528643695" width="1" x="18" y="0.09052847135630504" /><rect height="0.915767347521248" width="1" x="19" y="0.084232652478752" /><rect height="0.9141079058204451" width="1" x="20" y="0.0858920941795549" /><rect height="0.9686012263336554" width="1" x="21" y="0.03139877366634458" /><rect height="0.9408437886738426" width="1" x="22" y="0.05915621132615745" /><rect height="0.8937532313494115" width="1" x="23" y="0.10624676865058846" /><rect height="0.9615708237708785" width="1" x="24" y="0.03842917622912145" /><rect height="0.9379128621548256" width="1" x="25" y="0.06208713784517439" /><rect height="0.9707020420958562" width="1" x="26" y="0.0292979579041438" /><rect height="0.9156757195138024" width="1" x="27" y="0.08432428048619756" /><rect height="0.9530279742256264" width="1" x="28" y="0.04697202577437365" /><rect height="0.9422478416730417" width="1" x="29" y="0.05775215832695835" /><rect height="0.9229860748823068" width="1" x="30" y="0.07701392511769323" /><rect height="0.931554268344512" width="1" x="31" y="0.06844573165548795" /><rect height="0.9246135442571075" width="1" x="32" y="0.07538645574289249" /><rect height="0.994859083922677" width="1" x="33" y="0.005140916077323032" /><rect height="0.9398803299232119" width="1" x="34" y="0.06011967007678809" /><rect height="0.9817250863447755" width="1" x="35" y="0.01827491365522449" /><rect height="1" width="1" x="36" y="0" /><rect height="0.942156213665596" width="1" x="37" y="0.05784378633440401" /><rect height="0.9271791284655858" width="1" x="38" y="0.07282087153441419" /><rect height="0.9253465683166727" width="1" x="39" y="0.07465343168332728" /><rect height="0.984677457716599" width="1" x="40" y="0.01532254228340102" /><rect height="0.9380719439720079" width="1" x="41" y="0.06192805602799212" /><rect height="0.9704298874184218" width="1" x="42" y="0.029570112581578156" /><rect height="0.9265743836164445" width="1" x="43" y="0.07342561638355549" /><rect height="0.9657092904561048" width="1" x="44" y="0.03429070954389524" /><rect height="0.9332694666626117" width="1" x="45" y="0.06673053333738832" /><rect height="0.9140665757404908" width="1" x="46" y="0.08593342425950923" /><rect height="0.997843037714088" width="1" x="47" y="0.002156962285912001" /><rect height="0.950213239818179" width="1" x="48" y="0.049786760181821044" /><rect height="0.9616729792515202" width="1" x="49" y="0.03832702074847982" /><rect height="0.938604166228022" width="1" x="50" y="0.06139583377197799" /><rect height="0.48010619491109746" width="1" x="51" y="0.5198938050889026" /><rect height="0.3998790510301718" width="1" x="52" y="0.6001209489698283" /><rect height="0.42429888978047486" width="1" x="53" y="0.5757011102195251" /><rect height="0.4150772131672956" width="1" x="54" y="0.5849227868327044" /><rect height="0.41998418539582133" width="1" x="55" y="0.5800158146041787" /><rect height="0.4364479837549392" width="1" x="56" y="0.5635520162450608" /><rect height="0.3968385608086347" width="1" x="57" y="0.6031614391913653" /><rect height="0.9365197265352371" width="1" x="58" y="0.06348027346476293" /><rect height="0.8873595459617784" width="1" x="59" y="0.11264045403822165" /><rect height="0.9156971643666089" width="1" x="60" y="0.08430283563339114" /><rect height="0.8684962635268283" width="1" x="61" y="0.1315037364731717" /><rect height="0.8657150610710419" width="1" x="62" y="0.1342849389289581" /><rect height="0.9515833709593025" width="1" x="63" y="0.048416629040697545" /><rect height="0.9970144865829305" width="1" x="64" y="0.0029855134170695408" /><rect height="0.965850046671798" width="1" x="65" y="0.03414995332820203" /><rect height="0.9076042668238771" width="1" x="66" y="0.09239573317612293" /><rect height="0.9034642405129921" width="1" x="67" y="0.09653575948700788" /><rect height="0.9422310756972112" width="1" x="68" y="0.05776892430278879" /><rect height="0.8679531238912036" width="1" x="69" y="0.1320468761087964" /><rect height="0.9077520413550341" width="1" x="70" y="0.09224795864496593" /><rect height="0.9101316402037184" width="1" x="71" y="0.0898683597962816" /><rect height="0.9063585158290308" width="1" x="72" y="0.09364148417096918" /><rect height="0.8502611203258994" width="1" x="73" y="0.1497388796741006" /><rect height="0.8755539595386316" width="1" x="74" y="0.12444604046136842" /><rect height="0.9190846712971953" width="1" x="75" y="0.08091532870280471" /><rect height="0.86985118831778" width="1" x="76" y="0.13014881168222003" /><rect height="0.9313741315809381" width="1" x="77" y="0.06862586841906193" /><rect height="0.8852092120849154" width="1" x="78" y="0.11479078791508457" /><rect height="0.903930958491343" width="1" x="79" y="0.09606904150865703" /><rect height="0.9015720246826358" width="1" x="80" y="0.09842797531736425" /><rect height="0.8991807286415116" width="1" x="81" y="0.10081927135848845" /><rect height="0.9090504297158597" width="1" x="82" y="0.0909495702841403" /><rect height="0.9091346495014268" width="1" x="83" y="0.09086535049857325" /><rect height="0.9463976156442931" width="1" x="84" y="0.053602384355706856" /><rect height="0.9528860482906893" width="1" x="85" y="0.04711395170931065" /><rect height="0.9292202885463431" width="1" x="86" y="0.07077971145365691" /><rect height="0.9022582599724415" width="1" x="87" y="0.09774174002755853" /><rect height="0.9337950605095765" width="1" x="88" y="0.0662049394904235" /><rect height="0.9281792384191947" width="1" x="89" y="0.0718207615808053" /><rect height="0.9384236395580333" width="1" x="90" y="0.06157636044196668" /><rect height="0.9545583569031761" width="1" x="91" y="0.04544164309682386" /><rect height="0.9583798296732818" width="1" x="92" y="0.041620170326718164" /><rect height="0.9197365948225108" width="1" x="93" y="0.0802634051774892" /><rect height="0.9261224820818508" width="1" x="94" y="0.07387751791814923" /><rect height="0.9456267706625057" width="1" x="95" y="0.05437322933749433" /><rect height="0.9624949019736284" width="1" x="96" y="0.037505098026371586" /><rect height="0.5908669101242321" width="1" x="97" y="0.4091330898757679" /><rect height="0.2192065560424187" width="1" x="98" y="0.7807934439575813" /><rect height="0.029238054210286777" width="1" x="99" y="0.9707619457897132" /></svg>
